<?xml version="1.0" encoding="UTF-8"?>
<svg version="1.1" xmlns="http://www.w3.org/2000/svg" width="2000" height="2000">
<path d="M0 0 C130.35 0 260.7 0 395 0 C395 15.51 395 31.02 395 47 C384.92421707 48.11953144 384.92421707 48.11953144 380.59375 48.2109375 C325.48085218 47.80583555 325.48085218 47.80583555 277.5 69.375 C274.66891518 74.32939844 274.41008584 77.81234644 275.86914062 83.22314453 C278.89385103 92.26230102 282.45374595 100.8891936 286.5625 109.5 C287.18156964 110.81115459 287.80054584 112.1223533 288.41943359 113.43359375 C296.13356057 129.70066538 304.61531709 145.53921288 313.28955078 161.31054688 C317.82476728 169.59262884 322.1487504 177.97905069 326.4644165 186.37658691 C331.06986756 195.33265349 335.79435444 204.21304766 340.65234375 213.03515625 C344.19241871 219.47771203 347.61797765 225.9732229 351 232.5 C355.85901513 241.86994292 360.86015604 251.15308496 365.9375 260.40625 C368.03622271 264.23142841 370.11835538 268.06499125 372.1875 271.90625 C378.02648239 282.74516921 383.96230961 293.51588186 390.05444336 304.21459961 C394.14300971 311.42059824 398.092291 318.69456473 402 326 C406.87331679 335.10736712 411.86095737 344.13682569 416.96923828 353.11425781 C421.33299949 360.79248388 425.61640875 368.51317827 429.875 376.25 C431.23563287 378.72137851 432.59629734 381.19273962 433.95703125 383.6640625 C434.29398514 384.27609024 434.63093903 384.88811798 434.97810364 385.51869202 C440.32630142 395.22868271 445.72184934 404.91243986 451.11035156 414.60009766 C453.07328448 418.13185525 455.03312233 421.66531509 456.9921875 425.19921875 C457.9832032 426.98620708 458.9743198 428.77313938 459.96551514 430.56002808 C460.9221044 432.28474199 461.87829182 434.00967876 462.83447266 435.73461914 C466.73874889 442.76618821 470.70062664 449.75839053 474.77734375 456.69140625 C476 459 476 459 476 461 C476.66 461 477.32 461 478 461 C478.41052612 459.90715698 478.41052612 459.90715698 478.8293457 458.79223633 C479.94874554 456.12225179 481.22014382 453.79011222 482.73046875 451.32421875 C483.27832031 450.42638672 483.82617188 449.52855469 484.390625 448.60351562 C485.28007813 447.16008789 485.28007813 447.16008789 486.1875 445.6875 C486.80753906 444.67494141 487.42757813 443.66238281 488.06640625 442.61914062 C493.1233423 434.37877195 498.24954944 426.18204836 503.38696289 417.99169922 C508.28157262 410.17882017 513.09008564 402.31637447 517.87109375 394.43359375 C521.71386933 388.10125476 525.59263291 381.79266806 529.5 375.5 C535.81060874 365.33232268 542.0356341 355.11373863 548.24707031 344.88525391 C550.52813741 341.13070641 552.8132755 337.37864611 555.09863281 333.62670898 C556.84003981 330.767279 558.58029679 327.9071518 560.3203125 325.046875 C562.87502672 320.84738255 565.43297992 316.64988042 567.9921875 312.453125 C575.98000615 299.34040754 583.88387458 286.18178418 591.7026062 272.96749878 C596.97189958 264.06327767 602.29468714 255.1951453 607.68734741 246.3651123 C614.76443733 234.77625308 621.63686878 223.08188179 628.3828125 211.296875 C630.74779401 207.16673533 633.13689489 203.05257038 635.5546875 198.953125 C643.50789244 185.46610456 651.08123083 171.81380148 658.41748047 157.98144531 C659.86625508 155.25197362 661.32413645 152.52761749 662.78515625 149.8046875 C670.07488913 136.16819287 677.21584511 122.4081801 682.5625 107.875 C682.81418945 107.21290527 683.06587891 106.55081055 683.32519531 105.86865234 C686.27228643 97.44930067 685.55214283 89.13017528 682 81 C675.22625699 68.75437451 661.26851919 62.66033892 648.40869141 58.68359375 C629.33336535 53.26995976 609.68497262 51.6115293 590 50 C586.59825317 49.71364984 583.19672284 49.42500516 579.79541016 49.13354492 C577.81895642 48.96575075 575.84207788 48.80286099 573.86474609 48.64575195 C572.99672363 48.57445068 572.12870117 48.50314941 571.234375 48.4296875 C570.48381836 48.37022949 569.73326172 48.31077148 568.95996094 48.24951172 C567 48 567 48 564 47 C564 31.49 564 15.98 564 0 C670.26 0 776.52 0 886 0 C886 15.51 886 31.02 886 47 C879.07 48.65 872.14 50.3 865 52 C860.36654884 53.36986852 855.81413084 54.75547494 851.25 56.3125 C849.53707764 56.89378662 849.53707764 56.89378662 847.78955078 57.48681641 C832.60320188 62.74932753 819.36980584 69.54196047 806.09960938 78.57666016 C804.01156824 79.99215781 801.90668793 81.37893595 799.796875 82.76171875 C772.40315972 100.88411288 754.95554845 128.22547532 736.50439453 154.83300781 C735.23572938 156.66044563 733.96179807 158.48391954 732.68359375 160.3046875 C719.68603969 178.90080849 707.31321373 197.94653573 695 217 C694.42572266 217.8883252 693.85144531 218.77665039 693.25976562 219.69189453 C678.59068147 242.43566555 664.67604829 265.64840853 651 289 C650.44779785 289.94230469 649.8955957 290.88460938 649.32666016 291.85546875 C640.78563577 306.44019891 632.32739299 321.07227006 623.89111328 335.71777344 C620.76319849 341.14659946 617.63136837 346.57316556 614.5 352 C613.5709082 353.61068359 613.5709082 353.61068359 612.62304688 355.25390625 C609.51221667 360.64687516 606.40004851 366.03906364 603.28515625 371.4296875 C595.1632787 385.48912149 587.08620064 399.57364106 579.03924561 413.67604065 C576.65911942 417.84679932 574.2756683 422.01564525 571.890625 426.18359375 C565.13736798 437.98670584 558.38800257 449.79189112 551.71972656 461.64331055 C549.10707021 466.28574398 546.47555893 470.91483126 543.796875 475.51953125 C527.11081045 504.33954063 512.63962173 533.47842822 508.3125 566.8125 C508.19302002 567.72322266 508.07354004 568.63394531 507.95043945 569.57226562 C506.0039782 585.86559803 505.84938053 602.31339288 505.85473633 618.70166016 C505.85173325 620.57685918 505.84832815 622.4520576 505.84455872 624.32725525 C505.83583657 629.35398205 505.83338581 634.38069177 505.83274293 639.4074254 C505.83202629 642.56087828 505.82988065 645.71432696 505.82724571 648.86777878 C505.81803518 659.90469381 505.81390589 670.94159687 505.81469727 681.97851562 C505.81529865 692.21235553 505.80472372 702.44614283 505.7889536 712.67996943 C505.77582583 721.51879992 505.77051547 730.3576133 505.77115268 739.19645345 C505.77140589 744.45277162 505.76865265 749.70904279 505.75797462 754.9653511 C505.74820337 759.90841355 505.74827544 764.85138487 505.75549126 769.79445076 C505.75652559 771.59297254 505.75424401 773.39150029 505.7481308 775.19001198 C505.69799042 790.98119017 505.76674154 807.242451 512 822 C512.40992188 822.99386719 512.81984375 823.98773437 513.2421875 825.01171875 C520.79233931 841.66897459 534.38221187 851.14897654 550.85791016 857.82617188 C555.7464681 859.652449 560.69351967 861.03495284 565.75 862.3125 C567.43270996 862.74308716 567.43270996 862.74308716 569.14941406 863.18237305 C579.95049934 865.86968652 590.83908521 868.12049171 601.75 870.3125 C602.59590698 870.48335114 603.44181396 870.65420227 604.31335449 870.83023071 C618.2497751 873.62979794 632.07005317 875.94063161 646.29296875 876.65625 C649.00256397 877.00032558 650.62218608 877.72912679 653 879 C653.02527062 885.39037231 653.04283317 891.78073183 653.05493164 898.17114258 C653.05997308 900.34692873 653.06680607 902.52271147 653.07543945 904.69848633 C653.08751338 907.81853067 653.09323005 910.93853038 653.09765625 914.05859375 C653.10281754 915.03775253 653.10797882 916.01691132 653.11329651 917.02574158 C653.11337204 917.92659988 653.11344757 918.82745819 653.11352539 919.75561523 C653.115746 920.55281479 653.11796661 921.35001434 653.12025452 922.17137146 C653 924 653 924 652 925 C649.70661181 925.09819853 647.41012017 925.12371069 645.1146307 925.12304783 C644.38241105 925.12420167 643.6501914 925.12535552 642.89578328 925.12654433 C640.41096373 925.12921795 637.92620734 925.12468275 635.44139099 925.12025452 C633.65448922 925.12069007 631.86758752 925.12156467 630.08068615 925.12284368 C625.14605597 925.12509184 620.21144727 925.12106301 615.27681983 925.11606562 C609.964586 925.11176587 604.65235348 925.1132072 599.34011841 925.1139679 C590.12822111 925.11449343 580.91633087 925.11134353 571.70443535 925.10573006 C558.38541503 925.09761908 545.06639814 925.09500025 531.74737561 925.09374207 C510.14058246 925.09155091 488.53379307 925.08488911 466.92700195 925.07543945 C445.93221048 925.06626698 424.93742003 925.05918534 403.94262695 925.05493164 C402.00296741 925.05453756 402.00296741 925.05453756 400.02412283 925.05413551 C393.53729061 925.05283052 387.05045839 925.0515668 380.56362617 925.05032361 C326.70908137 925.03994902 272.85454117 925.02205466 219 925 C219 909.49 219 893.98 219 878 C244.70835287 875.20561382 244.70835287 875.20561382 256.921875 874.05078125 C284.09916443 871.52978899 284.09916443 871.52978899 311 867 C311.69077637 866.85626953 312.38155273 866.71253906 313.09326172 866.56445312 C328.79780366 863.12301349 344.11625693 854.83564687 353.7109375 841.6484375 C354.97843012 839.4744956 356.01705587 837.31519898 357 835 C357.35320312 834.24460937 357.70640625 833.48921875 358.0703125 832.7109375 C365.85179009 815.01528106 365.15201449 795.62501255 365.16113281 776.71484375 C365.16576807 774.46656209 365.17079367 772.21828121 365.17617798 769.97000122 C365.18923001 763.89158784 365.19573202 757.81318547 365.20018864 751.73476028 C365.20312915 747.93212997 365.20723562 744.1295026 365.21169281 740.32687378 C365.22378462 729.77503079 365.23417403 719.22319038 365.2375679 708.67134094 C365.23778747 707.99823055 365.23800703 707.32512016 365.23823325 706.63161248 C365.23845153 705.95701716 365.23866981 705.28242183 365.2388947 704.58738422 C365.23933815 703.22069104 365.23978471 701.85399787 365.24023438 700.48730469 C365.2404558 699.80939703 365.24067723 699.13148938 365.24090537 698.43303907 C365.24485569 687.44231666 365.26232455 676.45166044 365.2855939 665.46096361 C365.30935284 654.1468366 365.32151406 642.83275398 365.32293582 631.5185976 C365.32398189 625.17803933 365.32984866 618.83757479 365.34775543 612.49703979 C365.36426945 606.53467801 365.36637538 600.57248015 365.35761642 594.61010361 C365.35684802 592.42850174 365.36116267 590.24689092 365.37107468 588.06531143 C365.46932753 572.3073931 365.46932753 572.3073931 362 557 C361.63261719 555.80632813 361.26523437 554.61265625 360.88671875 553.3828125 C352.51288993 530.63436549 341.06885509 508.96331045 330.25 487.3125 C329.76685333 486.34511902 329.28370667 485.37773804 328.78591919 484.38104248 C323.06764054 472.94594142 317.2423261 461.57566535 311.25976562 450.27661133 C308.16835903 444.43747667 305.15060679 438.56095011 302.125 432.6875 C297.38189961 423.50613901 292.52500637 414.40004918 287.53955078 405.34838867 C283.57625823 398.12471479 279.77357742 390.82430173 276 383.5 C271.38583087 374.54798556 266.67623461 365.66276234 261.8203125 356.83984375 C257.1198857 348.27571535 252.55920762 339.63979444 248 331 C241.5709119 318.82115064 235.05950793 306.69349215 228.43310547 294.62060547 C226.39473737 290.8932046 224.37717841 287.1546716 222.35864258 283.41650391 C216.62298602 272.79478873 210.81869686 262.21250044 204.97637939 251.64923096 C200.31820981 243.22553356 195.69867566 234.78249712 191.125 226.3125 C186.2727223 217.3302498 181.36612964 208.38159711 176.38232422 199.47167969 C174.81673458 196.67231029 173.25417491 193.87125765 171.69140625 191.0703125 C168.70764094 185.72646484 165.71453761 180.38793054 162.71533203 175.05273438 C161.62351267 173.10965022 160.53317834 171.16573033 159.44482422 169.22070312 C145.3440586 144.04309062 130.80825939 118.21846348 110.46191406 97.49707031 C109.01361314 96.01394051 107.59545188 94.50633717 106.1796875 92.9921875 C79.95390299 65.3581562 48.66340821 54.96685759 12 49 C8.04 48.34 4.08 47.68 0 47 C0 31.49 0 15.98 0 0 Z " fill="#FFFFFF" transform="translate(366,540)"/>
<path d="M0 0 C0.66257812 0.60199219 1.32515625 1.20398438 2.0078125 1.82421875 C2.75289062 2.47777344 3.49796875 3.13132812 4.265625 3.8046875 C21.36372556 19.71461497 28.46624567 43.4559991 29.390625 66.19921875 C29.92091033 89.57201165 26.80076613 112.05821683 21.9375 134.9140625 C21.78830927 135.61709881 21.63911854 136.32013512 21.48540688 137.04447556 C17.89081303 153.90159541 13.65961538 170.58584574 9.37886047 187.27928925 C7.39387514 195.03261616 5.42810846 202.79086482 3.45750046 210.54785538 C2.61117155 213.87838452 1.76406838 217.20871612 0.91690063 220.53903198 C-7.18295258 252.39403343 -15.19111132 284.27223473 -23.20786124 316.14822853 C-25.31156092 324.51286277 -27.41613573 332.87727541 -29.52236938 341.24127197 C-41.62903668 389.25384693 -41.62903668 389.25384693 -53.53515625 437.31640625 C-53.85610638 438.62098345 -53.85610638 438.62098345 -54.18354034 439.95191574 C-69.70041852 497.71544374 -69.70041852 497.71544374 -57.61328125 554.234375 C-56.18751728 556.25064612 -54.68613022 558.02896367 -52.9921875 559.82421875 C-52.45335937 560.42621094 -51.91453125 561.02820312 -51.359375 561.6484375 C-38.13506828 574.84412018 -16.47687748 576.07849548 1.0703125 576.19921875 C25.63760429 576.04974296 50.25641336 572.01155802 74.0078125 565.82421875 C73.12503152 573.62048264 71.53708632 581.14732566 69.7890625 588.78930664 C69.43331205 590.36124625 69.08637404 591.93520486 68.74804688 593.51098633 C68.25536637 595.80390049 67.73628389 598.08937816 67.2109375 600.375 C66.99186737 601.42969231 66.99186737 601.42969231 66.76837158 602.50569153 C66.00493347 605.69800314 65.39260718 607.51050134 62.81640625 609.61083984 C59.5209097 611.03457227 56.22593984 612.42121759 52.8671875 613.6875 C52.16465851 613.9560379 51.46212952 614.22457581 50.73831177 614.50125122 C48.4139146 615.3863307 46.08632572 616.26252876 43.7578125 617.13671875 C42.95136292 617.44046417 42.14491333 617.74420959 41.31402588 618.05715942 C13.0340146 628.68786551 -15.45563762 639.24553259 -44.9921875 645.82421875 C-46.37277344 646.13625244 -46.37277344 646.13625244 -47.78125 646.45458984 C-83.81340324 654.43072751 -124.18307326 656.06036351 -156.9921875 636.82421875 C-160.23052859 634.6955492 -163.11968029 632.41648136 -165.9921875 629.82421875 C-166.56324219 629.39238281 -167.13429688 628.96054688 -167.72265625 628.515625 C-184.87541519 615.28798252 -194.37616244 592.46994168 -197.09375 571.57641602 C-199.77978831 546.99676722 -195.54767998 522.4909463 -190.11328125 498.55859375 C-189.96876841 497.9200584 -189.82425556 497.28152306 -189.67536354 496.62363815 C-184.9819603 475.95085991 -179.71136978 455.4136857 -174.53702927 434.85749817 C-172.18938273 425.52465604 -169.85136439 416.1893927 -167.51179695 406.85452271 C-166.92599295 404.51735234 -166.34005934 402.18021445 -165.7539959 399.84310913 C-162.19952325 385.66833839 -158.65799348 371.49060567 -155.1640625 357.30078125 C-154.98354151 356.56766409 -154.80302052 355.83454693 -154.61702919 355.0792141 C-153.03907721 348.66852494 -151.46454922 342.25699763 -149.89291382 335.84475708 C-145.50257845 317.93363258 -141.04655729 300.04060804 -136.51651192 282.16425705 C-134.8363486 275.52916463 -133.16241754 268.89249553 -131.48788738 262.25597954 C-130.1319001 256.88529351 -128.77139543 251.51584611 -127.3991394 246.14929199 C-121.5418068 223.2341906 -116.07329157 200.29654217 -111.4296875 177.1015625 C-111.22340729 176.0767383 -111.01712708 175.0519141 -110.80459595 173.99603462 C-99.73699407 122.6945082 -99.73699407 122.6945082 -110.9921875 72.82421875 C-111.30414062 72.20160156 -111.61609375 71.57898438 -111.9375 70.9375 C-116.08191256 63.8612993 -123.90445851 61.00593568 -131.46484375 58.8203125 C-138.92855638 57.10936176 -146.34797424 56.14194889 -153.9921875 55.82421875 C-155.14976563 55.75976562 -156.30734375 55.6953125 -157.5 55.62890625 C-179.56406773 54.97093206 -201.56143715 59.89637226 -223.02319336 64.53735352 C-223.72564178 64.68836014 -224.42809021 64.83936676 -225.15182495 64.99494934 C-227.06125723 65.40718217 -228.96928014 65.82592778 -230.87719727 66.24511719 C-233.9921875 66.82421875 -233.9921875 66.82421875 -237.9921875 66.82421875 C-237.073081 62.37759177 -236.14027243 57.93478945 -235.18359375 53.49609375 C-234.35327572 49.62082365 -233.60330956 45.73907454 -232.89453125 41.83984375 C-232.51098275 39.87619143 -232.12688002 37.91264727 -231.7421875 35.94921875 C-231.58661377 35.01706543 -231.43104004 34.08491211 -231.27075195 33.12451172 C-230.37156677 28.71693104 -229.57474614 25.66566964 -225.7421875 23.078125 C-224.18511286 22.27381298 -222.59652789 21.52954929 -220.9921875 20.82421875 C-219.93676758 20.35209961 -218.88134766 19.87998047 -217.79394531 19.39355469 C-213.96630763 17.74512565 -210.11306855 16.17985683 -206.2421875 14.63671875 C-205.54332428 14.35553192 -204.84446106 14.07434509 -204.12442017 13.78463745 C-189.88921735 8.0591645 -175.51421665 2.78024339 -160.9921875 -2.17578125 C-159.73752686 -2.60963135 -159.73752686 -2.60963135 -158.45751953 -3.05224609 C-111.48510936 -19.18066738 -42.33831482 -35.8185363 0 0 Z " fill="#229BA7" transform="translate(1500.9921875,827.17578125)"/>
<path d="M0 0 C1.15395264 0.00491455 2.30790527 0.0098291 3.49682617 0.01489258 C11.82229257 0.1293098 19.34228566 0.7484388 27.3125 3.3125 C28.96378906 3.84037109 28.96378906 3.84037109 30.6484375 4.37890625 C52.01495288 11.92442392 67.73839029 28.01514906 77.63012695 48.10375977 C87.584651 69.56128938 87.38826902 94.90689591 79.921875 117.140625 C75.66599462 128.70480382 69.46744122 139.09235233 61.3125 148.3125 C60.82394531 148.93125 60.33539062 149.55 59.83203125 150.1875 C48.52527029 164.37637649 31.51246645 172.74407289 13.921875 175.92578125 C-8.74000586 178.35383991 -29.68402612 174.21265122 -47.75 159.75 C-49.41288371 158.29002769 -51.0608589 156.81274669 -52.6875 155.3125 C-53.30625 154.77367187 -53.925 154.23484375 -54.5625 153.6796875 C-69.23843203 140.15880568 -80.32232515 118.63649769 -81.6328125 98.59375 C-81.65988281 97.46453125 -81.65988281 97.46453125 -81.6875 96.3125 C-81.72617188 95.2709375 -81.76484375 94.229375 -81.8046875 93.15625 C-82.30520595 68.01910102 -74.75129424 44.93007062 -57.6875 26.3125 C-56.84316406 25.37535156 -55.99882813 24.43820312 -55.12890625 23.47265625 C-40.12574123 7.5984802 -21.57317135 -0.10809301 0 0 Z " fill="#229BA7" transform="translate(1536.6875,477.6875)"/>
</svg>
