<?xml version="1.0" encoding="UTF-8"?>
<svg version="1.1" xmlns="http://www.w3.org/2000/svg" width="2000" height="2000">
<path d="M0 0 C130.35 0 260.7 0 395 0 C395 15.51 395 31.02 395 47 C384.92421707 48.11953144 384.92421707 48.11953144 380.59375 48.2109375 C379.61929932 48.23720215 378.64484863 48.2634668 377.64086914 48.29052734 C376.60438232 48.31840332 375.56789551 48.3462793 374.5 48.375 C322.86229604 48.16818959 322.86229604 48.16818959 278.2578125 68.83984375 C275.00898792 73.27405026 274.77206399 76.23374801 275.52075195 81.60620117 C276.30347135 85.5158108 277.65729843 89.07736183 279.1875 92.75 C279.53135742 93.58998535 279.87521484 94.4299707 280.22949219 95.29541016 C287.55838559 112.80889494 296.09589652 129.88681494 305.31933594 146.47216797 C309.71718866 154.39610972 313.86784293 162.43561914 318 170.5 C323.0803243 180.40749169 328.25599854 190.24516898 333.6328125 199.99609375 C337.36178808 206.77696804 340.94864346 213.62462834 344.5 220.5 C349.50397222 230.18092137 354.65042455 239.77165442 359.89453125 249.32421875 C363.34396551 255.61175298 366.73329591 261.9311963 370.125 268.25 C374.77316627 276.89888922 379.47366643 285.51385664 384.26171875 294.0859375 C387.4146465 299.73329277 390.53362251 305.39935558 393.65512085 311.06411743 C401.12086863 324.61166123 408.62240886 338.13898768 416.14111328 351.65722656 C419.26258349 357.2704614 422.3811369 362.8853163 425.5 368.5 C426.74998618 370.75000768 427.99998618 373.00000768 429.25 375.25 C436.75 388.75 436.75 388.75 438.62548828 392.12597656 C439.87375009 394.37278279 441.12212224 396.61952773 442.37060547 398.86621094 C445.52311379 404.53957447 448.67361316 410.21403722 451.8203125 415.890625 C453.08846528 418.1771257 454.35669383 420.46358438 455.625 422.75 C456.23802979 423.85593506 456.85105957 424.96187012 457.48266602 426.10131836 C460.57095283 431.66334625 463.68109759 437.21147118 466.83203125 442.73828125 C467.74251221 444.33687988 467.74251221 444.33687988 468.67138672 445.96777344 C469.82406116 447.98758285 470.98047022 450.00526686 472.14111328 452.02050781 C472.90464111 453.35807129 472.90464111 453.35807129 473.68359375 454.72265625 C474.35733032 455.89453491 474.35733032 455.89453491 475.04467773 457.09008789 C476 459 476 459 476 461 C476.66 461 477.32 461 478 461 C478.41052612 459.90715698 478.41052612 459.90715698 478.8293457 458.79223633 C479.94874554 456.12225179 481.22014382 453.79011222 482.73046875 451.32421875 C483.27832031 450.42638672 483.82617188 449.52855469 484.390625 448.60351562 C485.28007813 447.16008789 485.28007813 447.16008789 486.1875 445.6875 C486.80753906 444.67494141 487.42757813 443.66238281 488.06640625 442.61914062 C493.1233423 434.37877195 498.24954944 426.18204836 503.38696289 417.99169922 C508.2838399 410.17520109 513.09460519 402.30912673 517.87768555 394.42260742 C521.65516796 388.19765223 525.46927286 381.99705137 529.3125 375.8125 C536.25324699 364.63523482 543.07045377 353.38375661 549.88868713 342.13157654 C553.25132543 336.58296053 556.62480979 331.040986 560 325.5 C561.14197826 323.62372906 562.2839047 321.74742659 563.42578125 319.87109375 C565.26623131 316.8470943 567.10755233 313.82363571 568.95068359 310.80126953 C578.0798804 295.8304409 587.11385264 280.80719396 596.04907227 265.71972656 C600.87836968 257.5660913 605.73656682 249.43088428 610.625 241.3125 C622.82262976 221.02537847 634.79730459 200.60830862 646.34912109 179.94580078 C648.10550831 176.81173273 649.87486242 173.68517931 651.64453125 170.55859375 C677.51395064 130.40646204 677.51395064 130.40646204 683.9375 86 C679.96241607 74.32770811 671.51423587 69.21698727 661 64 C660.07574219 63.52691406 659.15148438 63.05382812 658.19921875 62.56640625 C634.11682718 51.37907239 604.89751267 51.00078863 578.84521484 49.00146484 C577.70206062 48.91203613 577.70206062 48.91203613 576.53581238 48.82080078 C575.09605486 48.7085915 573.65604657 48.59954037 572.21577454 48.49414062 C569.28157334 48.26433291 566.80769246 47.93589749 564 47 C564 31.49 564 15.98 564 0 C670.26 0 776.52 0 886 0 C886 15.51 886 31.02 886 47 C879.07 48.65 872.14 50.3 865 52 C820.48697024 65.12563698 785.31926704 88.12138336 757.79736328 125.56933594 C756.1840046 127.75116139 754.55114579 129.91521924 752.90234375 132.0703125 C745.42534776 141.85071371 738.47056403 151.94438041 731.59521484 162.15429688 C729.04296658 165.94090705 726.47693291 169.71809766 723.91081238 173.49531555 C721.36963266 177.23742621 718.83256899 180.98231761 716.29611206 184.72763062 C715.03821942 186.58382704 713.77909064 188.4391865 712.51858521 190.29360962 C704.1917548 202.54958002 696.20308005 214.9637072 688.4757843 227.60592651 C686.00324133 231.61697987 683.4691888 235.58862932 680.9375 239.5625 C675.30113947 248.45541467 669.87259338 257.46390007 664.48681641 266.51025391 C663.03423758 268.94266752 661.57184746 271.3688537 660.10546875 273.79296875 C652.53950456 286.31133916 645.21241916 298.96078282 637.92773438 311.64453125 C634.76986123 317.1412142 631.60430493 322.63345927 628.4375 328.125 C627.81568848 329.20362305 627.19387695 330.28224609 626.55322266 331.39355469 C622.41354615 338.56813086 618.2447843 345.72519785 614.0625 352.875 C606.96648496 365.01294686 599.99377024 377.22024595 593.03222656 389.43554688 C590.02519137 394.71111047 587.01122063 399.9827106 583.99771118 405.25457764 C582.33292064 408.16700631 580.66837035 411.07957225 579.00390625 413.9921875 C578.67410263 414.56929474 578.34429901 415.14640198 578.00450134 415.74099731 C575.99339799 419.26048189 573.98344306 422.78061962 571.97438049 426.30126953 C570.63054162 428.65612062 569.28634462 431.01076714 567.94204712 433.36535645 C567.2731297 434.53708469 566.60432652 435.70887817 565.93563843 436.8807373 C562.34972271 443.1640562 558.75095534 449.43950299 555.1171875 455.6953125 C524.14387037 508.37525071 524.14387037 508.37525071 508.3125 566.8125 C508.19302002 567.72322266 508.07354004 568.63394531 507.95043945 569.57226562 C505.99968558 585.90153047 505.84940295 602.38505975 505.85473633 618.80932617 C505.85173336 620.69599981 505.84832828 622.58267283 505.84455872 624.46934509 C505.83583606 629.52699548 505.8333858 634.58462888 505.83274293 639.64228606 C505.83202639 642.81449221 505.82988093 645.9866942 505.82724571 649.15889931 C505.81803543 660.25950006 505.81390591 671.36008891 505.81469727 682.46069336 C505.81529884 692.75703711 505.80472028 703.05332861 505.7889536 713.34965914 C505.77583143 722.24027823 505.77051523 731.13088031 505.77115268 740.02150899 C505.77140602 745.30965323 505.76864488 750.59775078 505.75797462 755.88588524 C505.74821277 760.85767157 505.74826919 765.82936726 505.75549126 770.801157 C505.75652669 772.61138671 505.75423719 774.42162233 505.7481308 776.23184204 C505.72065744 784.94932722 505.88845815 793.55710533 506.87846375 802.22554016 C506.95442396 802.89635689 507.03038417 803.56717362 507.10864621 804.25831813 C509.38213323 822.01302982 517.70315418 837.05803604 531.6796875 848.12109375 C561.27484523 869.33496697 610.93450277 873.89050767 646.48242188 877.35473633 C651.89760745 877.89760745 651.89760745 877.89760745 653 879 C653.09804851 880.4067522 653.12798186 881.81835136 653.12939453 883.22851562 C653.13412277 884.57496155 653.13412277 884.57496155 653.13894653 885.9486084 C653.1369223 886.92463013 653.13489807 887.90065186 653.1328125 888.90625 C653.13376923 889.9012854 653.13472595 890.8963208 653.13571167 891.92150879 C653.1363936 894.02986718 653.13453844 896.13822765 653.13037109 898.24658203 C653.12502303 901.48605027 653.13031567 904.72537985 653.13671875 907.96484375 C653.13605797 910.00781281 653.13477681 912.05078178 653.1328125 914.09375 C653.13483673 915.06977173 653.13686096 916.04579346 653.13894653 917.0513916 C653.13421829 918.39783752 653.13421829 918.39783752 653.12939453 919.77148438 C653.12820114 920.9627594 653.12820114 920.9627594 653.12698364 922.17810059 C653 924 653 924 652 925 C649.70661181 925.09819853 647.41012017 925.12371069 645.1146307 925.12304783 C644.38241105 925.12420167 643.6501914 925.12535552 642.89578328 925.12654433 C640.41096373 925.12921795 637.92620734 925.12468275 635.44139099 925.12025452 C633.65448922 925.12069007 631.86758752 925.12156467 630.08068615 925.12284368 C625.14605597 925.12509184 620.21144727 925.12106301 615.27681983 925.11606562 C609.964586 925.11176587 604.65235348 925.1132072 599.34011841 925.1139679 C590.12822111 925.11449343 580.91633087 925.11134353 571.70443535 925.10573006 C558.38541503 925.09761908 545.06639814 925.09500025 531.74737561 925.09374207 C510.14058246 925.09155091 488.53379307 925.08488911 466.92700195 925.07543945 C445.93221048 925.06626698 424.93742003 925.05918534 403.94262695 925.05493164 C402.00296741 925.05453756 402.00296741 925.05453756 400.02412283 925.05413551 C393.53729061 925.05283052 387.05045839 925.0515668 380.56362617 925.05032361 C326.70908137 925.03994902 272.85454117 925.02205466 219 925 C219 909.49 219 893.98 219 878 C244.70835287 875.20561382 244.70835287 875.20561382 256.921875 874.05078125 C284.09916443 871.52978899 284.09916443 871.52978899 311 867 C311.69077637 866.85626953 312.38155273 866.71253906 313.09326172 866.56445312 C328.85248074 863.11103174 343.91504113 854.83648333 353.67578125 841.75390625 C354.98341674 839.54752439 356.01357348 837.36742366 357 835 C357.43828125 833.989375 357.8765625 832.97875 358.328125 831.9375 C365.60644987 814.2018118 365.15361469 795.72746226 365.17700195 776.87011719 C365.1832767 774.63817746 365.18992438 772.40623875 365.19691467 770.17430115 C365.21782914 762.88183299 365.22830207 755.58936491 365.23828125 748.296875 C365.24233289 745.77618652 365.24644993 743.25549814 365.25063133 740.73480988 C365.267478 730.24645699 365.28211455 719.75810518 365.28938007 709.26974106 C365.29128942 706.55791981 365.29320985 703.84609856 365.29516602 701.13427734 C365.29564976 700.46040955 365.2961335 699.78654175 365.2966319 699.09225371 C365.30493068 688.17857672 365.33027513 677.26500935 365.36274669 666.3513802 C365.3959186 655.10956028 365.41350553 643.86779386 365.41702431 632.62591863 C365.41936702 626.32879355 365.42822689 620.03184249 365.45348549 613.7347641 C365.47687647 607.80846936 365.48095521 601.88246194 365.47072411 595.95613289 C365.4702314 593.79233147 365.47647279 591.62851534 365.49028015 589.46475792 C365.58993932 572.90939279 363.54335223 558.78402256 356.9375 543.4375 C356.52757812 542.46844727 356.11765625 541.49939453 355.6953125 540.50097656 C348.74286581 524.41732347 340.80319315 508.75962846 333.02325439 493.06542969 C331.64581364 490.28507805 330.27449913 487.50171302 328.90234375 484.71875 C324.73097659 476.2895748 320.42840774 467.93524849 316.0246582 459.62524414 C312.95176501 453.82589108 309.92972278 448.00166279 306.92114258 442.16870117 C301.60768492 431.87040123 296.20279472 421.63806926 290.60986328 411.48901367 C286.4429387 403.89224168 282.46023005 396.20560745 278.5 388.5 C273.70806212 379.17892931 268.82659702 369.91901497 263.76953125 360.73828125 C259.08355307 352.20930509 254.54136293 343.60649519 250 335 C244.51156166 324.60242777 238.99098169 314.22676013 233.33374023 303.91967773 C230.13774585 298.09590249 226.98407864 292.25084722 223.84765625 286.39477539 C218.23381566 275.91565747 212.50075047 265.51954533 206.61352539 255.19165039 C203.29495232 249.35004911 200.09523752 243.46268972 197 237.5 C192.85970862 229.52460672 188.47523872 221.70580138 184.02734375 213.8984375 C180.09459722 206.97937644 176.27078488 200.0084941 172.5 193 C160.26549554 170.30061162 147.73921249 147.72628909 133.25 126.375 C132.34725342 125.04263306 132.34725342 125.04263306 131.42626953 123.68334961 C124.66205362 113.84406972 117.15577807 104.71421511 109 96 C108.12859375 95.06285156 107.2571875 94.12570312 106.359375 93.16015625 C80.00654199 65.46812602 48.81299282 54.99120203 12 49 C8.04 48.34 4.08 47.68 0 47 C0 31.49 0 15.98 0 0 Z " fill="#191913" transform="translate(366,540)"/>
<path d="M0 0 C0.66257812 0.60199219 1.32515625 1.20398438 2.0078125 1.82421875 C2.75289062 2.47777344 3.49796875 3.13132812 4.265625 3.8046875 C21.36372556 19.71461497 28.46624567 43.4559991 29.390625 66.19921875 C29.92091033 89.57201165 26.80076613 112.05821683 21.9375 134.9140625 C21.78830927 135.61709881 21.63911854 136.32013512 21.48540688 137.04447556 C17.89081303 153.90159541 13.65961538 170.58584574 9.37886047 187.27928925 C7.39387514 195.03261616 5.42810846 202.79086482 3.45750046 210.54785538 C2.61117155 213.87838452 1.76406838 217.20871612 0.91690063 220.53903198 C-7.18295258 252.39403343 -15.19111132 284.27223473 -23.20786124 316.14822853 C-25.31156092 324.51286277 -27.41613573 332.87727541 -29.52236938 341.24127197 C-41.62903668 389.25384693 -41.62903668 389.25384693 -53.53515625 437.31640625 C-53.85610638 438.62098345 -53.85610638 438.62098345 -54.18354034 439.95191574 C-69.70041852 497.71544374 -69.70041852 497.71544374 -57.61328125 554.234375 C-56.18751728 556.25064612 -54.68613022 558.02896367 -52.9921875 559.82421875 C-52.45335937 560.42621094 -51.91453125 561.02820312 -51.359375 561.6484375 C-38.13506828 574.84412018 -16.47687748 576.07849548 1.0703125 576.19921875 C25.63760429 576.04974296 50.25641336 572.01155802 74.0078125 565.82421875 C73.12503152 573.62048264 71.53708632 581.14732566 69.7890625 588.78930664 C69.43331205 590.36124625 69.08637404 591.93520486 68.74804688 593.51098633 C68.25536637 595.80390049 67.73628389 598.08937816 67.2109375 600.375 C66.99186737 601.42969231 66.99186737 601.42969231 66.76837158 602.50569153 C66.00493347 605.69800314 65.39260718 607.51050134 62.81640625 609.61083984 C59.5209097 611.03457227 56.22593984 612.42121759 52.8671875 613.6875 C52.16465851 613.9560379 51.46212952 614.22457581 50.73831177 614.50125122 C48.4139146 615.3863307 46.08632572 616.26252876 43.7578125 617.13671875 C42.95136292 617.44046417 42.14491333 617.74420959 41.31402588 618.05715942 C13.0340146 628.68786551 -15.45563762 639.24553259 -44.9921875 645.82421875 C-46.37277344 646.13625244 -46.37277344 646.13625244 -47.78125 646.45458984 C-83.81340324 654.43072751 -124.18307326 656.06036351 -156.9921875 636.82421875 C-160.23052859 634.6955492 -163.11968029 632.41648136 -165.9921875 629.82421875 C-166.56324219 629.39238281 -167.13429688 628.96054688 -167.72265625 628.515625 C-184.87541519 615.28798252 -194.37616244 592.46994168 -197.09375 571.57641602 C-199.78971831 546.9058989 -195.51135862 522.32538222 -190.05078125 498.30859375 C-189.90498941 497.66494244 -189.75919758 497.02129112 -189.60898781 496.35813522 C-185.21653146 477.01761976 -180.30886508 457.80033635 -175.46496201 438.56922913 C-173.30182269 429.97476049 -171.14845031 421.37783434 -168.99349403 412.78131104 C-168.45095842 410.61721613 -167.90829358 408.45315362 -167.3654995 406.28912354 C-164.00804501 392.90321903 -160.6653936 379.51391485 -157.3671875 366.11328125 C-157.1028337 365.03931626 -157.1028337 365.03931626 -156.83313942 363.94365501 C-155.26646307 357.57677544 -153.70285858 351.2091437 -152.14193726 344.84085083 C-147.54260532 326.07885759 -142.86896246 307.33702154 -138.12801552 288.61027145 C-136.31440383 281.44153108 -134.50706284 274.27120571 -132.69914913 267.10102654 C-131.22455596 261.2561302 -129.74540478 255.41247258 -128.25473022 249.57165527 C-122.09627624 225.43282043 -116.25267777 201.28396623 -111.3671875 176.8515625 C-111.16258911 175.8334656 -110.95799072 174.81536869 -110.74719238 173.76642036 C-99.73936041 122.57444834 -99.73936041 122.57444834 -110.9921875 72.82421875 C-111.30414062 72.20160156 -111.61609375 71.57898438 -111.9375 70.9375 C-116.08191256 63.8612993 -123.90445851 61.00593568 -131.46484375 58.8203125 C-138.92855638 57.10936176 -146.34797424 56.14194889 -153.9921875 55.82421875 C-155.14976563 55.75976562 -156.30734375 55.6953125 -157.5 55.62890625 C-179.56406773 54.97093206 -201.56143715 59.89637226 -223.02319336 64.53735352 C-223.72564178 64.68836014 -224.42809021 64.83936676 -225.15182495 64.99494934 C-227.06125723 65.40718217 -228.96928014 65.82592778 -230.87719727 66.24511719 C-233.9921875 66.82421875 -233.9921875 66.82421875 -237.9921875 66.82421875 C-237.073081 62.37759177 -236.14027243 57.93478945 -235.18359375 53.49609375 C-234.35327572 49.62082365 -233.60330956 45.73907454 -232.89453125 41.83984375 C-232.51098275 39.87619143 -232.12688002 37.91264727 -231.7421875 35.94921875 C-231.58661377 35.01706543 -231.43104004 34.08491211 -231.27075195 33.12451172 C-230.37156677 28.71693104 -229.57474614 25.66566964 -225.7421875 23.078125 C-224.18511286 22.27381298 -222.59652789 21.52954929 -220.9921875 20.82421875 C-219.93676758 20.35209961 -218.88134766 19.87998047 -217.79394531 19.39355469 C-213.96630763 17.74512565 -210.11306855 16.17985683 -206.2421875 14.63671875 C-205.54332428 14.35553192 -204.84446106 14.07434509 -204.12442017 13.78463745 C-189.88921735 8.0591645 -175.51421665 2.78024339 -160.9921875 -2.17578125 C-159.73752686 -2.60963135 -159.73752686 -2.60963135 -158.45751953 -3.05224609 C-111.48510936 -19.18066738 -42.33831482 -35.8185363 0 0 Z " fill="#229BA7" transform="translate(1500.9921875,827.17578125)"/>
<path d="M0 0 C1.15395264 0.00491455 2.30790527 0.0098291 3.49682617 0.01489258 C11.82229257 0.1293098 19.34228566 0.7484388 27.3125 3.3125 C28.96378906 3.84037109 28.96378906 3.84037109 30.6484375 4.37890625 C52.01495288 11.92442392 67.73839029 28.01514906 77.63012695 48.10375977 C87.584651 69.56128938 87.38826902 94.90689591 79.921875 117.140625 C75.66599462 128.70480382 69.46744122 139.09235233 61.3125 148.3125 C60.82394531 148.93125 60.33539062 149.55 59.83203125 150.1875 C48.52527029 164.37637649 31.51246645 172.74407289 13.921875 175.92578125 C-8.74000586 178.35383991 -29.68402612 174.21265122 -47.75 159.75 C-49.41288371 158.29002769 -51.0608589 156.81274669 -52.6875 155.3125 C-53.30625 154.77367187 -53.925 154.23484375 -54.5625 153.6796875 C-69.19365067 140.20006258 -80.36444321 118.64994371 -81.62890625 98.6484375 C-81.65791016 97.49214844 -81.65791016 97.49214844 -81.6875 96.3125 C-81.73777344 95.23226562 -81.78804687 94.15203125 -81.83984375 93.0390625 C-82.58060134 64.77175276 -71.74286965 41.01801011 -52.5 20.6875 C-37.9075779 6.41756237 -20.07233973 -0.10057305 0 0 Z " fill="#229BA7" transform="translate(1536.6875,477.6875)"/>
</svg>
