<?xml version="1.0" encoding="UTF-8"?>
<svg version="1.1" xmlns="http://www.w3.org/2000/svg" width="2000" height="2000">
<path d="M0 0 C2.33266498 3.68045908 2.24426455 6.83055761 2.23377991 11.12419128 C2.23528483 12.20163439 2.23528483 12.20163439 2.23682016 13.30084401 C2.237773 15.70872968 2.22442751 18.11632361 2.21118164 20.52416992 C2.20898024 22.25084851 2.2076749 23.97752845 2.2071991 25.70420837 C2.20426372 29.42557175 2.19500842 33.14684741 2.18089485 36.86818504 C2.15860391 42.76663989 2.15053304 48.66506224 2.14439392 54.56355286 C2.13300275 63.91071564 2.11228037 73.25783044 2.08749622 82.60496646 C2.04329512 99.29506187 2.00984704 115.98517232 1.98725218 132.67531091 C1.97890532 138.52296041 1.96493998 144.37056043 1.94627964 150.21818578 C1.93552384 153.88241556 1.92901259 157.54664499 1.92347908 161.210886 C1.92005119 162.89210092 1.91488579 164.5733135 1.90771103 166.2545166 C1.88582966 171.50429492 1.90798748 176.75093268 2 182 C2.01247544 182.77098093 2.02495088 183.54196187 2.03780437 184.33630586 C2.08662468 186.64660546 2.16571693 188.95384106 2.25511169 191.26289368 C2.26889014 191.95345641 2.28266859 192.64401915 2.29686457 193.35550803 C2.53742896 198.28418194 3.93433624 201.17868219 7 205 C11.77727014 208.46352085 16.773592 208.4938387 22.48828125 208.7890625 C25 209 25 209 26 210 C26.07205511 211.68608966 26.08386068 213.37500659 26.0625 215.0625 C26.05347656 215.98160156 26.04445313 216.90070313 26.03515625 217.84765625 C26.01775391 218.91306641 26.01775391 218.91306641 26 220 C20.16530495 220.43095443 14.33034613 220.85807414 8.49511719 221.28173828 C6.51261938 221.42620788 4.53019585 221.5717007 2.54785156 221.71826172 C-0.31165667 221.92949172 -3.17141727 222.13696537 -6.03125 222.34375 C-6.90865845 222.40937134 -7.78606689 222.47499268 -8.69006348 222.54260254 C-13.80566346 222.9082653 -18.87323205 223.24304254 -24 223 C-26.68092691 220.31907309 -26.38670257 218.60832637 -26.625 214.875 C-26.73714844 213.23144531 -26.73714844 213.23144531 -26.8515625 211.5546875 C-26.90054688 210.71164062 -26.94953125 209.86859375 -27 209 C-27.46148438 209.43570312 -27.92296875 209.87140625 -28.3984375 210.3203125 C-41.11632346 221.93229534 -54.60105943 226.95984896 -71.765625 226.31640625 C-86.55713205 225.40419792 -98.73108262 218.37644531 -109 208 C-109.93779297 207.11248047 -109.93779297 207.11248047 -110.89453125 206.20703125 C-125.36315789 191.41179904 -129.27060669 168.92036017 -129.24658203 149.12060547 C-128.98467179 128.40099366 -121.25194698 109.70725282 -107.125 94.625 C-94.87983453 83.13003242 -78.78110852 76.5955057 -62.0625 76.625 C-60.69520752 76.62632935 -60.69520752 76.62632935 -59.30029297 76.62768555 C-47.82745018 76.82445988 -37.48333571 79.42654895 -27 84 C-26.92350669 77.06240965 -26.87121503 70.12492935 -26.83520508 63.18701172 C-26.82018222 60.83019954 -26.79975804 58.47341502 -26.77368164 56.11669922 C-26.73701179 52.71575058 -26.72020804 49.31517379 -26.70703125 45.9140625 C-26.69154739 44.87198639 -26.67606354 43.82991028 -26.66011047 42.7562561 C-26.65833801 34.93179327 -27.69650923 27.86657378 -31.75 21.0625 C-37.00739848 16.24321806 -43.62097624 15.31767635 -50.4375 14.3125 C-51.26443359 14.18294922 -52.09136719 14.05339844 -52.94335938 13.91992188 C-54.9609698 13.6050347 -56.9803231 13.30134862 -59 13 C-59 9.7 -59 6.4 -59 3 C-16.63107495 -0.24064256 -16.63107495 -0.24064256 0 0 Z M-85.78125 103.12890625 C-98.97848184 121.40976566 -100.57935683 147.76542116 -97.4609375 169.4296875 C-96.80858127 172.70580617 -96.01878152 175.82069904 -95 179 C-94.58234375 180.33804687 -94.58234375 180.33804687 -94.15625 181.703125 C-89.9345721 193.56749565 -82.25902593 202.69836277 -70.9921875 208.23828125 C-62.55259124 211.4651857 -52.38277803 211.04364267 -44 207.94921875 C-39.28338982 205.71067134 -35.588778 202.90345763 -31.75 199.375 C-30.87859375 198.57835937 -30.0071875 197.78171875 -29.109375 196.9609375 C-26.16167307 194.57490759 -26.16167307 194.57490759 -25.84609985 190.83399963 C-25.82782018 189.39533133 -25.8153288 187.95658333 -25.80712891 186.51782227 C-25.79895142 185.73394638 -25.79077393 184.9500705 -25.78234863 184.1424408 C-25.75742898 181.53377044 -25.74095429 178.92515509 -25.7265625 176.31640625 C-25.71857698 174.97949895 -25.71857698 174.97949895 -25.71043015 173.61558342 C-25.6836591 168.89029677 -25.66430442 164.1650368 -25.64990234 159.43969727 C-25.63332286 154.57412295 -25.58861351 149.70923505 -25.5375309 144.8439188 C-25.50373456 141.09219152 -25.49231089 137.34062385 -25.48667526 133.58875847 C-25.47998764 131.79671983 -25.46483088 130.00469076 -25.44078445 128.21280098 C-25.24100901 114.3842115 -25.24100901 114.3842115 -31 102 C-32.0828125 100.39125 -32.0828125 100.39125 -33.1875 98.75 C-40.69136073 91.41289173 -48.65680662 88.61385742 -58.875 87.625 C-70.39196086 88.05917114 -78.64858186 94.60411647 -85.78125 103.12890625 Z " fill="#191913" transform="translate(690,879)"/>
<path d="M0 0 C29.04 0 58.08 0 88 0 C88 3.63 88 7.26 88 11 C86.08733291 12.91266709 82.61286128 12.31265714 80.0625 12.4375 C73.90187199 12.77832576 67.99906752 13.54610834 62 15 C62.51292533 20.20841861 63.72398482 24.02625093 66.140625 28.65625 C66.45893784 29.27185287 66.77725067 29.88745575 67.10520935 30.52171326 C68.14282776 32.52024204 69.19576681 34.51019254 70.25 36.5 C70.98066397 37.89633594 71.71088387 39.29290433 72.44067383 40.68969727 C77.69262404 50.70103063 83.18106443 60.5677889 88.8046875 70.375 C94.39189593 80.14475283 99.67586986 90.08523972 105 100 C109.5182277 93.69453278 113.74940698 87.30691875 117.6875 80.625 C118.72898027 78.87228506 119.77065257 77.11968421 120.8125 75.3671875 C121.3384375 74.47999023 121.864375 73.59279297 122.40625 72.67871094 C123.96862333 70.05273665 125.54400523 67.43511102 127.125 64.8203125 C133.27288959 54.6492003 139.30198644 44.4308534 145 34 C145.82371094 32.49759766 145.82371094 32.49759766 146.6640625 30.96484375 C147.35628906 29.65193359 147.35628906 29.65193359 148.0625 28.3125 C148.44535156 27.58675781 148.82820312 26.86101563 149.22265625 26.11328125 C150.1554989 23.57726177 150.27445002 21.68252766 150 19 C144.35383902 12.62530212 135.1296056 12.78659816 127.1875 12.24609375 C125 12 125 12 124 11 C123.92773498 9.14712498 123.9161878 7.29166122 123.9375 5.4375 C123.94652344 4.42558594 123.95554687 3.41367187 123.96484375 2.37109375 C123.97644531 1.58863281 123.98804688 0.80617188 124 0 C133.23997552 -0.02312524 142.47994114 -0.04091601 151.71993923 -0.05181217 C156.00999915 -0.05704061 160.30003933 -0.06413753 164.59008789 -0.07543945 C168.726794 -0.08626975 172.86348108 -0.09227714 177.00020027 -0.09487724 C178.58192304 -0.09673124 180.16364471 -0.10035136 181.74535942 -0.10573006 C183.95322838 -0.1129424 186.16101773 -0.11399086 188.36889648 -0.11352539 C189.62798325 -0.115746 190.88707001 -0.11796661 192.18431091 -0.12025452 C195 0 195 0 196 1 C196.07205511 2.68608966 196.08386068 4.37500659 196.0625 6.0625 C196.05347656 6.98160156 196.04445313 7.90070312 196.03515625 8.84765625 C196.01775391 9.91306641 196.01775391 9.91306641 196 11 C194.1128125 11.556875 194.1128125 11.556875 192.1875 12.125 C180.83186062 15.91021313 172.18516214 21.74639182 165.4375 31.5625 C164.65705322 32.68579712 164.65705322 32.68579712 163.86083984 33.83178711 C152.70605239 50.0268735 142.78945145 66.9569026 133 84 C132.40944824 85.02335449 131.81889648 86.04670898 131.21044922 87.10107422 C117.11987721 111.0238076 117.11987721 111.0238076 112.796875 137.96875 C112.79117493 139.12242065 112.78547485 140.27609131 112.77960205 141.46472168 C112.77017644 143.89883513 112.76362779 146.33296121 112.75976562 148.76708984 C112.75003433 152.48687888 112.7189767 156.20612112 112.6875 159.92578125 C112.68097182 162.29426756 112.67572063 164.66275781 112.671875 167.03125 C112.6533548 168.6955304 112.6533548 168.6955304 112.63446045 170.39343262 C112.65054815 175.97532615 112.70156904 180.2513466 116 185 C123.80882017 190.94149361 134.45115813 192.06383903 144 193 C144 196.63 144 200.26 144 204 C112.32 204 80.64 204 48 204 C48 200.37 48 196.74 48 193 C49.3509375 192.90203125 50.701875 192.8040625 52.09375 192.703125 C53.89590538 192.55294539 55.69798504 192.40185519 57.5 192.25 C58.386875 192.188125 59.27375 192.12625 60.1875 192.0625 C67.00122786 191.46128872 73.31287777 190.12052904 77.9375 184.75 C81.59375074 175.2867628 80.29494182 163.57480876 80.35009766 153.6027832 C80.36663229 151.41810434 80.39388912 149.23347902 80.43212891 147.04907227 C80.77560467 129.41240979 80.77560467 129.41240979 75 113 C74.46407227 111.89712646 73.92814453 110.79425293 73.37597656 109.65795898 C71.62013511 106.0947946 69.79143474 102.57508231 67.9375 99.0625 C67.26780089 97.78208242 66.59845456 96.50148027 65.92944336 95.22070312 C60.62311282 85.08645619 55.18886429 75.02406532 49.65429688 65.01269531 C48.10814316 62.19694313 46.5788046 59.3728992 45.05531311 56.54486084 C43.65884383 53.95568378 42.25431548 51.37092167 40.84884644 48.78662109 C40.17249669 47.53904172 39.49927246 46.28976138 38.82962036 45.03857422 C29.49200978 27.12543816 29.49200978 27.12543816 14 15 C10.55680496 14.00949184 7.14380711 13.21496316 3.625 12.54296875 C1 12 1 12 0 11 C0 7.37 0 3.74 0 0 Z " fill="#191913" transform="translate(195,897)"/>
<path d="M0 0 C7.91204536 3.09910643 14.95868464 0.32963628 22.71679688 -1.94726562 C23.52955078 -2.17607422 24.34230469 -2.40488281 25.1796875 -2.640625 C25.91018311 -2.85533447 26.64067871 -3.07004395 27.39331055 -3.29125977 C29.74228885 -3.68005428 31.21221156 -3.26954553 33.48046875 -2.63671875 C32.94332514 3.17817389 32.07339258 8.75715361 30.6862793 14.42724609 C30.41772125 15.55386658 30.41772125 15.55386658 30.14373779 16.70324707 C29.55653593 19.16146125 28.96181506 21.61779133 28.3671875 24.07421875 C27.95166659 25.80932728 27.53670403 27.54456961 27.12226868 29.27993774 C26.0318781 33.84065291 24.93546188 38.39989558 23.83728027 42.95874023 C22.08960786 50.21653723 20.34957133 57.47615984 18.61249733 64.73649979 C18.01245092 67.23968673 17.40888335 69.74200352 16.80485535 72.24423218 C14.85502275 80.35122742 12.97863614 88.47149113 11.22583008 96.62353516 C11.05606753 97.39872183 10.88630499 98.1739085 10.71139812 98.97258568 C9.24244857 105.92287422 7.70165437 113.41600745 10.7109375 120.09375 C13.42261223 123.57163746 15.92951207 123.61043994 20.140625 124.2265625 C26.3541596 124.48091772 32.36929997 123.43541612 38.48046875 122.36328125 C37.73046875 129.98828125 37.73046875 129.98828125 35.48046875 133.36328125 C33.68383789 134.31469727 33.68383789 134.31469727 31.515625 135.1171875 C30.72067627 135.41359131 29.92572754 135.70999512 29.10668945 136.01538086 C28.26066162 136.31581299 27.41463379 136.61624512 26.54296875 136.92578125 C25.6821167 137.23588135 24.82126465 137.54598145 23.93432617 137.86547852 C17.85664987 140.0015584 11.92127641 141.76670558 5.48046875 142.36328125 C4.78050781 142.43289063 4.08054687 142.5025 3.359375 142.57421875 C-3.09811746 142.90149907 -8.73112047 140.94760556 -14.26953125 137.80078125 C-18.45883624 133.26236751 -21.23305401 127.4041309 -22.51953125 121.36328125 C-23.06738281 121.90855469 -23.61523438 122.45382812 -24.1796875 123.015625 C-36.06990475 134.32583165 -50.35769397 143.36344882 -67.14453125 143.80078125 C-79.5457775 143.40889681 -90.04626872 139.33914262 -98.76953125 130.30078125 C-110.49702284 116.08563993 -112.88273917 97.19047053 -111.51953125 79.36328125 C-109.43541219 58.16508874 -100.67627558 37.36530387 -86.51953125 21.36328125 C-85.85953125 21.36328125 -85.19953125 21.36328125 -84.51953125 21.36328125 C-84.30039063 20.80253906 -84.08125 20.24179687 -83.85546875 19.6640625 C-76.18563338 6.45490159 -57.45439074 -0.81332193 -43.51953125 -4.63671875 C-29.15878234 -7.65094011 -13.32275824 -6.19560011 0 0 Z M-60.91796875 25.3125 C-74.39304726 44.00744681 -80.86951342 65.24689395 -80.89453125 88.23828125 C-80.91902344 89.41519531 -80.94351562 90.59210938 -80.96875 91.8046875 C-81.00788078 103.66131338 -78.86621708 113.76234267 -70.71484375 122.65625 C-64.32465413 127.6251341 -56.20085621 127.0267844 -48.51953125 126.36328125 C-40.3893342 124.53601079 -33.89683646 119.51958726 -27.51953125 114.36328125 C-26.87266357 113.95424561 -26.2257959 113.54520996 -25.55932617 113.1237793 C-17.83126047 107.64714775 -16.90534313 99.50751521 -15.08203125 90.80078125 C-14.71783921 89.16821113 -14.35067847 87.53630073 -13.98071289 85.9050293 C-13.20784309 82.48525639 -12.45000205 79.06259307 -11.70019531 75.63769531 C-10.53015927 70.34614777 -9.25096351 65.08468404 -7.94921875 59.82421875 C-7.52767539 58.10756169 -7.10636711 56.39084688 -6.68530273 54.67407227 C-6.07783839 52.19760217 -5.4685015 49.72172521 -4.8508606 47.24777222 C-0.55507952 31.1163662 -0.55507952 31.1163662 -4.26171875 15.3359375 C-7.35419056 10.4859429 -11.83569092 7.64742547 -17.1953125 5.87109375 C-34.91238668 2.00013637 -50.09906922 12.00913005 -60.91796875 25.3125 Z " fill="#229BA7" transform="translate(1745.51953125,962.63671875)"/>
<path d="M0 0 C1.53583486 1.53583486 1.13090344 2.93623788 1.13803101 5.07713318 C1.14348434 5.95595657 1.14893768 6.83477997 1.15455627 7.74023438 C1.1555986 8.71210693 1.15664093 9.68397949 1.15771484 10.68530273 C1.16279556 11.70326431 1.16787628 12.72122589 1.17311096 13.77003479 C1.18384356 15.99029608 1.19245231 18.21056838 1.19923019 20.43084526 C1.21099115 23.94964668 1.23044006 27.4683238 1.25234985 30.98707581 C1.31403679 40.99549184 1.36790025 51.00389799 1.40136719 61.01245117 C1.42237026 67.1280415 1.45772826 73.24341011 1.50212479 79.35887337 C1.51625054 81.68672121 1.52499945 84.01460834 1.52817917 86.34249687 C1.5331145 89.61194722 1.55634364 92.88081539 1.58349609 96.15014648 C1.58048996 97.10380096 1.57748383 98.05745544 1.5743866 99.04000854 C1.68209039 107.81906577 3.34490173 116.05230784 9 123 C15.1022372 128.90953498 20.00982964 129.35416137 28.2890625 129.27734375 C37.32786656 128.60181208 44.276677 124.85856824 51 119 C51.61700775 118.54009674 52.2340155 118.08019348 52.86972046 117.60635376 C57.15592035 113.80090575 58.42241373 110.33959381 58.77471352 104.78273582 C58.89638449 100.46401915 58.85595624 96.15526738 58.7890625 91.8359375 C58.78361378 89.95602995 58.78083868 88.07611294 58.78060913 86.19619751 C58.77290037 82.267041 58.74203119 78.33900906 58.69287109 74.41015625 C58.63052365 69.38191678 58.61202739 64.35475147 58.60907936 59.32616234 C58.60437249 55.44841064 58.58356939 51.57088581 58.55720139 47.69322586 C58.54516919 45.83933984 58.53645061 43.98542917 58.531147 42.13151169 C58.51989713 39.53956494 58.48871465 36.94862398 58.45166016 34.35693359 C58.45144867 33.59626083 58.45123718 32.83558807 58.45101929 32.05186462 C58.334583 26.23099706 56.71639067 22.41458348 53.38671875 17.73046875 C49.80615064 15.13441037 46.13171199 14.86554914 41.8125 14.3125 C33.08952703 13.08952703 33.08952703 13.08952703 32 12 C31.8671875 10.1875 31.8671875 10.1875 31.875 8 C31.87113281 6.9171875 31.87113281 6.9171875 31.8671875 5.8125 C32 4 32 4 33 3 C34.38129099 2.784559 35.77203405 2.62898216 37.1640625 2.5 C38.0312793 2.4179834 38.89849609 2.3359668 39.79199219 2.25146484 C40.72688477 2.16848145 41.66177734 2.08549805 42.625 2 C43.58051758 1.91314941 44.53603516 1.82629883 45.52050781 1.73681641 C48.34643417 1.48401031 51.17295674 1.23996396 54 1 C55.0832959 0.9067041 55.0832959 0.9067041 56.18847656 0.81152344 C63.58447798 0.19116571 70.95598473 -0.09241963 78.375 -0.125 C79.11975586 -0.12967285 79.86451172 -0.1343457 80.63183594 -0.13916016 C85.87685328 -0.12314672 85.87685328 -0.12314672 87 1 C87.10141714 2.51942943 87.13351939 4.04354159 87.13803101 5.56634521 C87.14348434 6.55336426 87.14893768 7.5403833 87.15455627 8.55731201 C87.1555986 9.64924866 87.15664093 10.7411853 87.15771484 11.86621094 C87.16279556 13.00924683 87.16787628 14.15228271 87.17311096 15.32995605 C87.18384251 17.82197035 87.19245167 20.31399446 87.19923019 22.80602264 C87.21097723 26.74770722 87.2304196 30.68928013 87.25234985 34.63092041 C87.31432461 45.8414717 87.36825907 57.05201893 87.40136719 68.26269531 C87.42168096 75.11093025 87.4575733 81.95895648 87.50212479 88.8070755 C87.51630984 91.4209583 87.52501284 94.03487671 87.52817917 96.64879608 C87.53307585 100.30481566 87.55620386 103.96029975 87.58349609 107.61621094 C87.58048996 108.70005066 87.57748383 109.78389038 87.5743866 110.90057373 C87.63257364 116.13703783 87.68430369 119.6955467 91 124 C91 124.66 91 125.32 91 126 C94.7150822 127.58528554 98.3884096 128.6763188 102.3125 129.625 C103.38113281 129.88539063 104.44976563 130.14578125 105.55078125 130.4140625 C106.35902344 130.60742188 107.16726563 130.80078125 108 131 C108 134.3 108 137.6 108 141 C102.59259416 141.43124673 97.18488239 141.85835112 91.77685547 142.28173828 C89.93985312 142.42612725 88.10293698 142.57161764 86.26611328 142.71826172 C83.615132 142.92970732 80.96385868 143.13709704 78.3125 143.34375 C77.50071289 143.40937134 76.68892578 143.47499268 75.85253906 143.54260254 C70.88621065 143.92492367 65.97965651 144.23333561 61 144 C58.06552643 141.06552643 58.53841577 137.81740544 58.375 133.875 C58.33632813 133.12089844 58.29765625 132.36679688 58.2578125 131.58984375 C58.16348969 129.72696816 58.08065338 127.86351745 58 126 C57.55011719 126.49628906 57.10023438 126.99257812 56.63671875 127.50390625 C46.33259516 138.38621714 32.71785516 146.3091514 17.5546875 147.203125 C5.53025897 147.35630243 -5.74632258 146.39949181 -15 138 C-24.61649515 127.46764817 -27.13771433 113.73462143 -27.15771484 99.86499023 C-27.16533592 98.69285477 -27.16533592 98.69285477 -27.17311096 97.49703979 C-27.18375261 95.81217478 -27.19239672 94.12729618 -27.19923019 92.44241142 C-27.21109688 89.7727374 -27.23056623 87.10321955 -27.25234985 84.43360901 C-27.31372628 76.84747515 -27.36805718 69.26136227 -27.40136719 61.67504883 C-27.42233079 57.02435732 -27.45763703 52.37395972 -27.50212479 47.72343636 C-27.51625956 45.95609051 -27.52500152 44.18869277 -27.52817917 42.42129326 C-27.53309747 39.94908779 -27.55627513 37.47766178 -27.58349609 35.00561523 C-27.58048996 34.28077438 -27.57748383 33.55593353 -27.5743866 32.80912781 C-27.67408279 26.7006427 -29.36398124 22.80381555 -33.4375 18.3125 C-37.86276372 14.82183396 -43.59551498 14.07564993 -49 13 C-49 9.7 -49 6.4 -49 3 C-13.70110386 -0.69115361 -13.70110386 -0.69115361 0 0 Z " fill="#191913" transform="translate(436,958)"/>
<path d="M0 0 C13.35576943 12.63261441 20.24426918 29.89230738 20.89453125 48.15625 C21.23644628 73.79048406 16.77886138 95.977532 -1.51171875 115.02734375 C-6.30469197 119.45162672 -11.72284607 122.77316509 -17.44140625 125.87109375 C-18.12589844 126.25265625 -18.81039063 126.63421875 -19.515625 127.02734375 C-34.83761891 134.73211783 -54.55951734 134.73253375 -70.66015625 129.90625 C-88.44052215 123.61962063 -101.88120112 111.62926815 -110.44140625 94.87109375 C-115.64258702 82.70853617 -117.82160943 71.35669788 -117.75390625 58.18359375 C-117.7482666 57.03600586 -117.74262695 55.88841797 -117.73681641 54.70605469 C-117.42800741 33.06496502 -110.61045885 15.61751598 -95.81640625 -0.31640625 C-69.39435881 -25.72843658 -26.59822115 -23.19364884 0 0 Z M-73.16015625 4.6875 C-74.73884404 6.68099607 -76.10757234 8.70653873 -77.44140625 10.87109375 C-78.10269531 11.92876953 -78.10269531 11.92876953 -78.77734375 13.0078125 C-84.50450892 23.22993458 -87.02031502 36.22700574 -87.44140625 47.87109375 C-87.48136719 48.8765625 -87.52132813 49.88203125 -87.5625 50.91796875 C-87.9922171 72.85881835 -85.49730952 96.05578995 -69.8515625 112.66796875 C-62.74573286 119.16341108 -55.75449493 121.19043336 -46.32421875 121.08984375 C-37.35825933 120.40949995 -30.57396161 116.29346741 -24.44140625 109.87109375 C-14.20497567 97.83742727 -9.97441415 81.48378357 -9.44140625 65.87109375 C-9.3640625 63.93943359 -9.3640625 63.93943359 -9.28515625 61.96875 C-8.73775497 41.53471641 -10.90815667 18.36654163 -25.42578125 2.734375 C-32.57799031 -3.87726012 -40.28249451 -6.50073729 -49.984375 -6.33984375 C-58.88678789 -5.57556665 -67.00283492 -1.81966913 -73.16015625 4.6875 Z " fill="#191913" transform="translate(1246.44140625,973.12890625)"/>
<path d="M0 0 C35.31 0 70.62 0 107 0 C104.75766871 11.21165644 104.75766871 11.21165644 100.9375 14.9375 C97.6995825 18.25263334 94.64655795 21.56814108 91.75 25.1875 C87.58915231 30.32694428 83.28265511 35.32326152 78.94067383 40.30908203 C74.9535878 44.89043346 71.01214495 49.50710443 67.09863281 54.15136719 C63.71518052 58.16384184 60.29899816 62.14710388 56.875 66.125 C53.38176144 70.18620876 49.93551293 74.27518971 46.5625 78.4375 C42.46084729 83.48854068 38.21408989 88.40128396 33.94213867 93.30786133 C29.03423277 98.94762913 24.19855674 104.64521845 19.38232422 110.36328125 C17.9065427 112.11065661 16.42460381 113.85266609 14.94140625 115.59375 C14.43883301 116.18462402 13.93625977 116.77549805 13.41845703 117.38427734 C12.45577351 118.5158193 11.49196732 119.64640741 10.52685547 120.77587891 C8.53387317 123.1219165 6.71044603 125.43433096 5 128 C11.22557433 128.04974337 17.45103084 128.08588128 23.67675781 128.10986328 C25.79103615 128.11986979 27.90530083 128.13347918 30.01953125 128.15087891 C33.07295114 128.17536388 36.12618674 128.18653691 39.1796875 128.1953125 C40.57874832 128.21079636 40.57874832 128.21079636 42.006073 128.22659302 C49.27555434 128.22781293 56.08895641 127.3036812 63 125 C64.08769963 123.1587216 64.08769963 123.1587216 65 121 C65.82529835 119.66167835 66.65965155 118.32892314 67.5 117 C72.56983533 108.6511667 76.69681536 99.75944699 81 91 C84.3 91 87.6 91 91 91 C89.59504062 100.82922326 87.8145314 110.56335306 85.91333008 120.30664062 C85.43032014 122.78686818 84.95427435 125.26837247 84.47851562 127.75 C84.1722905 129.32820568 83.86566537 130.90633381 83.55859375 132.484375 C83.41691269 133.22588806 83.27523163 133.96740112 83.1292572 134.73138428 C82.1146167 139.8853833 82.1146167 139.8853833 81 141 C79.5325104 141.09565123 78.06043116 141.12188309 76.58982849 141.12025452 C75.63765442 141.12162918 74.68548035 141.12300385 73.70445251 141.12442017 C72.65141434 141.12082489 71.59837616 141.11722961 70.51342773 141.11352539 C69.41112823 141.11367142 68.30882874 141.11381744 67.17312622 141.1139679 C63.50992908 141.11326821 59.84678206 141.10547324 56.18359375 141.09765625 C53.65153532 141.09579227 51.11947652 141.09436827 48.5874176 141.09336853 C42.59151751 141.08993346 36.59563911 141.08204269 30.59974772 141.07201904 C23.77518942 141.06085677 16.95063028 141.05534717 10.12606514 141.05032361 C-3.91596664 141.03986004 -17.95798233 141.0222613 -32 141 C-31.71317931 139.2252478 -31.41643828 137.45209679 -31.11547852 135.6796875 C-30.95128922 134.69210449 -30.78709991 133.70452148 -30.61793518 132.68701172 C-29.82182792 129.2252416 -28.48697365 127.44605584 -25.9375 125 C-25.12796875 124.18015625 -24.3184375 123.3603125 -23.484375 122.515625 C-22.66453125 121.68546875 -21.8446875 120.8553125 -21 120 C-19.54089684 118.26797107 -18.10351252 116.51743169 -16.6875 114.75 C-13.23157641 110.48268565 -9.70613096 106.28696316 -6.125 102.125 C1.12589091 93.69483065 8.37081932 85.26221369 15.375 76.625 C19.50066038 71.55633153 23.76674927 66.62077957 28.05761719 61.69238281 C32.97854497 56.03775817 37.82766343 50.32545429 42.65722656 44.59277344 C44.47616799 42.43517819 46.29922379 40.28108003 48.12255859 38.12719727 C49.03460355 37.04978152 49.94639106 35.97214779 50.85791016 34.89428711 C53.24551276 32.07105626 55.63621155 29.25052037 58.03125 26.43359375 C58.52818359 25.84835937 59.02511719 25.263125 59.53710938 24.66015625 C60.48539782 23.54348014 61.43456281 22.42754759 62.38476562 21.3125 C64.6838918 18.60318489 66.88283169 15.85276227 69 13 C64.68076 12.94980771 60.36168355 12.91391437 56.04223633 12.89013672 C54.57899003 12.88020337 53.11576289 12.86665207 51.65258789 12.84912109 C32.19143196 11.95431148 32.19143196 11.95431148 15.34375 19.59765625 C9.23311848 26.80542388 5.24321116 35.6194174 1 44 C-2.3 44 -5.6 44 -9 44 C-7.88278983 38.0544527 -6.76169756 32.10965582 -5.63696289 26.16552734 C-5.25470249 24.14229275 -4.87351346 22.11885543 -4.4934082 20.09521484 C-3.94762604 17.19054366 -3.39802528 14.28661759 -2.84765625 11.3828125 C-2.6778273 10.47443634 -2.50799835 9.56606018 -2.33302307 8.63015747 C-2.17293259 7.78943695 -2.0128421 6.94871643 -1.84790039 6.08251953 C-1.70800186 5.34083527 -1.56810333 4.599151 -1.42396545 3.83499146 C-1 2 -1 2 0 0 Z " fill="#229BA7" transform="translate(1522,961)"/>
<path d="M0 0 C1.17113799 0.00138269 1.17113799 0.00138269 2.36593533 0.00279331 C3.70584782 0.00073132 3.70584782 0.00073132 5.07282925 -0.00137234 C6.06041225 0.00222294 7.04799526 0.00581821 8.06550503 0.00952244 C9.09952953 0.00937641 10.13355404 0.00923038 11.19891262 0.00907993 C14.63485175 0.00977956 18.07073742 0.01757425 21.50666714 0.02539158 C23.88178382 0.02725558 26.25690089 0.02867957 28.63201809 0.0296793 C34.89727233 0.03350586 41.16250356 0.04333732 47.42774868 0.05438328 C53.81537979 0.06459443 60.2030146 0.06917628 66.59065151 0.0742197 C79.13428115 0.08495947 91.6778948 0.10184656 104.22151089 0.12304783 C104.10624184 1.72807525 103.97811495 3.33218277 103.84455776 4.93579197 C103.77458584 5.8291576 103.70461391 6.72252323 103.63252163 7.64296055 C103.02723239 11.29534716 101.3491633 13.02616085 98.72151089 15.56054783 C95.26188596 19.05931985 91.98035076 22.52675021 88.90901089 26.37304783 C85.32755205 30.80573368 81.64919352 35.13717002 77.90901089 39.43554783 C77.3578561 40.06912205 76.80670132 40.70269627 76.23884487 41.3554697 C75.11972929 42.64153237 74.00050713 43.9275023 72.88117886 45.21337986 C66.76072629 52.25577174 60.66120752 59.31307584 54.78401089 66.56054783 C50.64090098 71.66612247 46.33920638 76.62104836 42.01863003 81.57592869 C38.85685251 85.21042634 35.75300882 88.87825626 32.72151089 92.62304783 C28.65051396 97.64841766 24.4312313 102.53167048 20.18318081 107.40698338 C15.95686741 112.2607518 11.78495696 117.15747437 7.64778042 122.0874033 C5.89501987 124.17135212 4.14817452 126.1963842 2.22151089 128.12304783 C8.58947705 128.17408971 14.95738973 128.2089239 21.32551479 128.23291111 C23.48829527 128.2429195 25.65106238 128.25653033 27.81379604 128.27392673 C30.93671387 128.29840327 34.05945156 128.30958286 37.18244839 128.31836033 C38.13702938 128.3286829 39.09161037 128.33900547 40.07511806 128.34964085 C47.40215115 128.35084367 54.25498764 127.44522224 61.22151089 125.12304783 C62.30921052 123.28176943 62.30921052 123.28176943 63.22151089 121.12304783 C64.04680924 119.78472617 64.88116243 118.45197096 65.72151089 117.12304783 C70.79134622 108.77421453 74.91832625 99.88249482 79.22151089 91.12304783 C82.52151089 91.12304783 85.82151089 91.12304783 89.22151089 91.12304783 C87.14984349 103.42574303 84.96850027 115.6989181 82.53401089 127.93554783 C82.31978481 129.02021336 82.10555874 130.10487888 81.88484097 131.22241306 C81.68269985 132.22731785 81.48055874 133.23222263 81.27229214 134.26757908 C81.09351528 135.15807957 80.91473843 136.04858006 80.73054409 136.96606541 C80.22151089 139.12304783 80.22151089 139.12304783 79.22151089 141.12304783 C41.93151089 141.12304783 4.64151089 141.12304783 -33.77848911 141.12304783 C-31.4864507 128.51683654 -31.4864507 128.51683654 -25.84098911 122.74804783 C-24.65649904 121.46241472 -23.47292024 120.1759415 -22.29020786 118.88867283 C-21.40147984 117.94217869 -21.40147984 117.94217869 -20.49479771 116.97656345 C-17.95140057 114.22983927 -15.55168712 111.37133992 -13.15348911 108.49804783 C-12.25550823 107.43255866 -11.35707219 106.36745293 -10.45817661 105.30273533 C-9.79640415 104.51721287 -9.79640415 104.51721287 -9.12126255 103.71582127 C-6.84427473 101.01489971 -4.56103117 98.31927539 -2.27848911 95.62304783 C-1.36179327 94.53973918 -0.44512659 93.45640586 0.47151089 92.37304783 C38.97151089 46.87304783 38.97151089 46.87304783 40.34699917 45.24755955 C41.26215502 44.16595262 42.17719439 43.08424713 43.09211636 42.00244236 C45.40594566 39.26686844 47.7218756 36.53312308 50.04182339 33.80273533 C50.51168667 33.24908298 50.98154995 32.69543064 51.46565151 32.12500095 C52.75082289 30.61078913 54.03691136 29.09735579 55.32307339 27.58398533 C59.34688681 22.81155545 63.27615081 17.96030823 67.22151089 13.12304783 C62.81480382 13.04745776 58.40846529 12.99378695 54.00129604 12.95825291 C52.51001805 12.94340081 51.01878177 12.92311361 49.52766323 12.89672947 C31.13930859 12.31789643 31.13930859 12.31789643 14.28401089 18.31054783 C7.608505 25.26786927 3.44509851 35.56894631 -0.77848911 44.12304783 C-4.07848911 44.12304783 -7.37848911 44.12304783 -10.77848911 44.12304783 C-9.54995017 37.47945921 -8.31998027 30.83614162 -7.08708286 24.19336033 C-6.32124812 20.06455998 -5.56075608 15.93496331 -4.81364536 11.80273533 C-4.6780521 11.0595908 -4.54245884 10.31644627 -4.40275669 9.5507822 C-4.05159827 7.62479396 -3.70398121 5.69816098 -3.35661411 3.77148533 C-2.57218701 0.17796118 -2.57218701 0.17796118 0 0 Z " fill="#229BA7" transform="translate(1393.778489112854,960.8769521713257)"/>
<path d="M0 0 C0.4640625 -1.4540625 0.4640625 -1.4540625 0.9375 -2.9375 C2 -6 2 -6 3 -7 C4.85287502 -7.07226502 6.70833878 -7.0838122 8.5625 -7.0625 C9.57441406 -7.05347656 10.58632813 -7.04445313 11.62890625 -7.03515625 C12.41136719 -7.02355469 13.19382812 -7.01195312 14 -7 C14.29014373 -2.53865427 14.574695 1.92300602 14.85449219 6.38500977 C14.95003242 7.89682181 15.0469921 9.40854495 15.14550781 10.92016602 C15.75567597 20.29994487 16.10851186 29.59337783 16 39 C12.37 39 8.74 39 5 39 C4.70867187 38.16597656 4.41734375 37.33195313 4.1171875 36.47265625 C-0.29579278 24.35777643 -5.50554612 14.35184075 -17.5625 8.6875 C-26.18082153 5.18494437 -35.17940514 4.75690262 -43.92578125 8.0234375 C-48.25041761 10.05951865 -51.07617592 12.70664629 -53.875 16.625 C-55.92521618 22.77564854 -56.09512912 29.25974876 -53.5625 35.3125 C-48.61960459 43.42465712 -38.89314152 46.50166853 -30.375 49.5 C-28.24185338 50.27773003 -26.10903998 51.05637462 -23.9765625 51.8359375 C-22.43790527 52.3923291 -22.43790527 52.3923291 -20.86816406 52.95996094 C12.05034889 64.89670465 12.05034889 64.89670465 19.9375 80.3125 C24.76944695 90.74622952 24.84118428 104.26939843 21.0625 115.125 C15.81971378 126.57982703 6.4059355 134.62527926 -5.19140625 139.28125 C-21.00544143 144.71429276 -39.41128001 145.57986694 -54.765625 138.2421875 C-57.2577655 137.01552352 -59.71468251 135.73531951 -62.1640625 134.42578125 C-64.76878416 132.85027282 -64.76878416 132.85027282 -67 133 C-67.99 135.31 -68.98 137.62 -70 140 C-73.63 140 -77.26 140 -81 140 C-82.10038785 134.58812809 -82.21773604 129.28849203 -82.31640625 123.7890625 C-82.33718735 122.82092621 -82.35796844 121.85278992 -82.37937927 120.85531616 C-82.44448984 117.77861268 -82.50357998 114.70182764 -82.5625 111.625 C-82.60572186 109.53254383 -82.6493373 107.44009574 -82.69335938 105.34765625 C-82.80013156 100.23185331 -82.90150636 95.11596875 -83 90 C-79.37 90 -75.74 90 -72 90 C-71.70867188 90.75023437 -71.41734375 91.50046875 -71.1171875 92.2734375 C-64.8628396 107.88963948 -56.91824891 121.00672936 -41 128 C-32.15065207 131.67331423 -21.02565593 131.10215419 -12.0546875 127.984375 C-9.00823041 126.52485563 -7.10257631 124.61229178 -5 122 C-4.48953125 121.39414063 -3.9790625 120.78828125 -3.453125 120.1640625 C-0.07153851 115.12804391 0.50536747 108.21567022 -0.4375 102.3125 C-2.21578273 96.12716876 -6.0274702 92.01725527 -11.28515625 88.44921875 C-19.0574565 84.20249799 -27.5182707 81.8101021 -35.91381836 79.10595703 C-51.92824245 73.85225755 -67.41762754 67.28025573 -76 52 C-80.87862076 41.32585459 -80.00751198 29.81903299 -76.25390625 18.9375 C-74.41974206 14.64064185 -72.21079995 11.37600889 -69 8 C-68.35160156 7.31164062 -67.70320312 6.62328125 -67.03515625 5.9140625 C-48.95194043 -11.67865018 -21.54711452 -8.99318127 0 0 Z " fill="#191913" transform="translate(898,962)"/>
<path d="M0 0 C8.91 0 17.82 0 27 0 C27 14.52 27 29.04 27 44 C40.53 44 54.06 44 68 44 C68 48.62 68 53.24 68 58 C54.8 58 41.6 58 28 58 C28.06304026 70.0835298 28.13855455 82.16680796 28.23571491 94.25011253 C28.28034373 99.86155115 28.31961637 105.47291842 28.34643555 111.08447266 C28.37254318 116.50517043 28.41299832 121.92559251 28.46318626 127.34611893 C28.47980459 129.40880516 28.49135009 131.47153902 28.49761391 133.53428268 C28.50730988 136.43509216 28.53543443 139.33520428 28.56762695 142.23583984 C28.56619186 143.07885651 28.56475677 143.92187317 28.5632782 144.79043579 C28.67923216 152.23216559 30.27615581 159.48506933 34 166 C39.69963132 169.23303527 46.11440087 169.41667143 52.5 169.25 C53.68529297 169.24226563 53.68529297 169.24226563 54.89453125 169.234375 C60.31835894 169.16335925 65.61817456 168.66734635 71 168 C71 171.63 71 175.26 71 179 C58.66377745 184.75690385 47.42280531 188.18221629 33.8125 188.3125 C32.82185547 188.34150391 31.83121094 188.37050781 30.81054688 188.40039062 C22.46759467 188.47151087 16.09502332 186.63877171 9.078125 182.1171875 C6.64060219 179.63384659 5.26326054 177.25505995 3.75 174.125 C3.24984375 173.11695313 2.7496875 172.10890625 2.234375 171.0703125 C-0.30341796 164.75795406 -0.13884484 158.46864795 -0.11352539 151.77197266 C-0.11367142 150.75672516 -0.11381744 149.74147766 -0.1139679 148.69546509 C-0.11327321 145.35164222 -0.10550161 142.00787559 -0.09765625 138.6640625 C-0.09579049 136.34093252 -0.09436733 134.01780215 -0.09336853 131.69467163 C-0.08955578 125.58895781 -0.07973609 119.48326788 -0.06866455 113.37756348 C-0.05842373 107.14363936 -0.05386519 100.90971136 -0.04882812 94.67578125 C-0.03811271 82.45050866 -0.02052596 70.22526006 0 58 C-8.58 58 -17.16 58 -26 58 C-26 53.38 -26 48.76 -26 44 C-17.42 44 -8.84 44 0 44 C0 29.48 0 14.96 0 0 Z " fill="#191913" transform="translate(959,916)"/>
<path d="M0 0 C1.63225977 1.63225977 1.12812726 3.46525939 1.13130188 5.71820068 C1.13531006 6.73887634 1.13931824 7.759552 1.14344788 8.81115723 C1.14291916 9.94049683 1.14239044 11.06983643 1.1418457 12.23339844 C1.14532013 13.41544861 1.14879456 14.59749878 1.15237427 15.81536865 C1.15974784 18.39250972 1.16508464 20.96965721 1.16866493 23.54680634 C1.17456557 27.62290196 1.19109784 31.69890982 1.21000671 35.77496338 C1.21634458 37.16953654 1.2226702 38.56410975 1.22898388 39.95868301 C1.23214969 40.6572342 1.2353155 41.35578538 1.23857725 42.07550478 C1.28067294 51.56822443 1.3136195 61.06090421 1.32592773 70.55371094 C1.33430902 76.9519845 1.35680454 83.3500419 1.3952834 89.74820733 C1.41504733 93.13489628 1.42744783 96.52126208 1.42244911 99.90801239 C1.42010343 103.68868122 1.44220974 107.46847289 1.4699707 111.24902344 C1.46336929 112.37026611 1.45676788 113.49150879 1.44996643 114.64672852 C1.49668386 120.69784749 1.49668386 120.69784749 3.88517761 126.15142822 C8.81044747 130.45661948 15.57573592 132.32376168 22 133 C22 136.3 22 139.6 22 143 C-1.1 143 -24.2 143 -48 143 C-48 139.7 -48 136.4 -48 133 C-47.11957031 132.89042969 -46.23914062 132.78085938 -45.33203125 132.66796875 C-44.17058594 132.50941406 -43.00914063 132.35085938 -41.8125 132.1875 C-40.66394531 132.03667969 -39.51539063 131.88585938 -38.33203125 131.73046875 C-34.90562171 130.9793098 -32.78039635 130.11863239 -30 128 C-28.32150109 125.22892239 -27.74813728 123.15006549 -27.73257446 119.92828369 C-27.72404449 119.12658752 -27.71551453 118.32489136 -27.70672607 117.49890137 C-27.70763245 116.62817993 -27.70853882 115.7574585 -27.70947266 114.86035156 C-27.70275543 113.93627502 -27.69603821 113.01219849 -27.68911743 112.06011963 C-27.67011217 109.00356677 -27.66621165 105.94723328 -27.6640625 102.890625 C-27.65763527 100.76316233 -27.65090696 98.63570055 -27.64389038 96.50823975 C-27.63191053 92.04616243 -27.62821018 87.58416257 -27.62939453 83.12207031 C-27.62959751 77.41462096 -27.60231968 71.7076707 -27.56785011 66.00033951 C-27.54556882 61.60444882 -27.54155741 57.20867788 -27.54261398 52.81273651 C-27.54025895 50.70926955 -27.53144096 48.60579924 -27.51594925 46.502388 C-27.49626915 43.55364997 -27.502136 40.60598326 -27.51416016 37.65722656 C-27.50292114 36.79460205 -27.49168213 35.93197754 -27.48010254 35.04321289 C-27.5394561 29.29126134 -28.66514952 24.76672642 -32 20 C-37.83952189 15.40292958 -44.82546093 14.42411903 -52 13 C-52 9.7 -52 6.4 -52 3 C-45.861877 1.46546925 -39.61174381 1.33192224 -33.3125 0.9375 C-32.61558044 0.89297699 -31.91866089 0.84845398 -31.20062256 0.80258179 C-9.38569199 -0.57820166 -9.38569199 -0.57820166 0 0 Z " fill="#191913" transform="translate(1091,958)"/>
<path d="M0 0 C1.6264164 1.6264164 1.13154133 3.43361307 1.13803101 5.68023682 C1.14348434 6.69249832 1.14893768 7.70475983 1.15455627 8.74769592 C1.1555986 9.86768478 1.15664093 10.98767365 1.15771484 12.14160156 C1.16279556 13.31389816 1.16787628 14.48619476 1.17311096 15.6940155 C1.18665396 18.91939495 1.19602039 22.14476076 1.20452833 25.37015629 C1.21522776 28.74311619 1.23381418 32.11602814 1.25234985 35.48895264 C1.3143268 46.9862481 1.36826135 58.48353958 1.40136719 69.98095703 C1.41971906 76.3264658 1.44866457 82.67183449 1.4893719 89.01724029 C1.51043778 92.37593196 1.52589848 95.7344471 1.52817917 99.09320831 C1.53307507 102.8426217 1.5562011 106.59151265 1.58349609 110.34082031 C1.58048996 111.45271225 1.57748383 112.56460419 1.5743866 113.71018982 C1.58547958 114.73373062 1.59657257 115.75727142 1.60800171 116.81182861 C1.61131186 117.69821644 1.614622 118.58460426 1.61803246 119.49785233 C2.18311066 123.19949959 3.71347912 126.03656468 6.7265625 128.29296875 C11.75069109 130.66030506 16.53668025 131.97562755 22 133 C22 136.3 22 139.6 22 143 C-1.1 143 -24.2 143 -48 143 C-48 134 -48 134 -47 133 C-44.03374674 132.4995585 -41.0589708 132.09912166 -38.078125 131.6953125 C-34.78532123 130.95150657 -32.69293841 130.02441175 -30 128 C-28.30752627 125.21516043 -27.74803084 123.12333378 -27.73257446 119.8835907 C-27.72404449 119.07203522 -27.71551453 118.26047974 -27.70672607 117.42433167 C-27.70763245 116.54268845 -27.70853882 115.66104523 -27.70947266 114.75268555 C-27.70275543 113.81724915 -27.69603821 112.88181274 -27.68911743 111.91802979 C-27.67011292 108.82420546 -27.66621185 105.73059783 -27.6640625 102.63671875 C-27.65763579 100.48444021 -27.65090752 98.33216256 -27.64389038 96.17988586 C-27.63191112 91.66653417 -27.62821018 87.15325905 -27.62939453 82.63989258 C-27.62959764 76.86284523 -27.6023063 71.08629026 -27.56785011 65.30935955 C-27.54558647 60.86289729 -27.54155685 56.41655356 -27.54261398 51.97004128 C-27.54025681 49.84062823 -27.53142676 47.71121197 -27.51594925 45.58185387 C-27.4963026 42.59938719 -27.50212268 39.61798267 -27.51416016 36.63549805 C-27.49730164 35.32214226 -27.49730164 35.32214226 -27.48010254 33.98225403 C-27.53967454 28.15914421 -28.6567779 24.7959016 -32 20 C-37.45413199 14.83292759 -44.82038238 14.29823223 -52 13 C-52 9.7 -52 6.4 -52 3 C-45.861877 1.46546925 -39.61174381 1.33192224 -33.3125 0.9375 C-32.61558044 0.89297699 -31.91866089 0.84845398 -31.20062256 0.80258179 C-9.38569199 -0.57820166 -9.38569199 -0.57820166 0 0 Z " fill="#191913" transform="translate(777,958)"/>
<path d="M0 0 C4.64512356 3.74942708 7.03643128 7.99771432 7.83311462 13.9092865 C8.49118963 26.09682118 4.89894335 38.50584713 1.90234375 50.21484375 C1.50304396 51.80684546 1.10475475 53.39910094 0.70741272 54.99159241 C-0.32826644 59.13442036 -1.37401789 63.274625 -2.42315674 67.4140625 C-4.10700285 74.06007049 -5.7802791 80.70869243 -7.44372368 87.35983467 C-8.02175963 89.66150011 -8.60733626 91.9611505 -9.19361877 94.26072693 C-13.03637989 108.59166052 -13.03637989 108.59166052 -11 123 C-8.99748546 125.82172503 -7.31603225 126.3402964 -4 127 C3.04273417 127.38251272 10.01069789 126.84902585 17 126 C17.10798586 129.1585865 16.93670423 131.9688672 16 135 C13.12274792 137.0716215 11.29394958 137.908318 8 139 C6.78183594 139.43183594 5.56367187 139.86367187 4.30859375 140.30859375 C-8.04685584 144.607987 -21.31957565 148.19607713 -33.87109375 142.40625 C-37.92263062 139.73000546 -41.1190098 135.87652821 -42.5534668 131.19287109 C-44.19272723 123.14265937 -42.70979082 115.20954735 -40.75 107.375 C-40.49766602 106.32175537 -40.24533203 105.26851074 -39.98535156 104.18334961 C-39.20191142 100.93242874 -38.40514261 97.68524494 -37.60253906 94.43902588 C-36.92297994 91.68822947 -36.24643408 88.93670192 -35.5703125 86.18505859 C-35.31505798 85.14625549 -35.05980347 84.10745239 -34.79681396 83.03717041 C-34.26293975 80.86351924 -33.72929125 78.68981261 -33.19586182 76.51605225 C-31.85021964 71.03366024 -30.50020299 65.55244223 -29.13964844 60.07373047 C-28.62951254 58.00880012 -28.11941966 55.94385914 -27.609375 53.87890625 C-27.37621582 52.94628464 -27.14305664 52.01366302 -26.90283203 51.05278015 C-22.46468588 34.78249002 -22.46468588 34.78249002 -24.25 18.4375 C-26.26199821 15.63507393 -26.74272412 15.53897371 -30 15 C-37.49162115 14.41641357 -44.66029091 15.58754739 -52 17 C-51.73249395 13.4956707 -51.22653615 10.30381864 -50 7 C-47.07914669 4.88094956 -45.34450544 4.07918635 -42 3 C-40.783125 2.56945312 -39.56625 2.13890625 -38.3125 1.6953125 C-26.77746729 -2.32505013 -11.226768 -7.31045358 0 0 Z " fill="#229BA7" transform="translate(1339,960)"/>
<path d="M0 0 C4.4997193 3.85690226 7.40402432 7.36711716 8.625 13.25 C8.72590774 19.92112268 7.44973384 25.72396314 3.625 31.25 C-0.65789403 35.42307623 -4.75400203 37.31093152 -10.6875 37.6875 C-17.11051984 37.53762954 -21.28583652 34.28418549 -25.75 29.9375 C-29.47065135 23.78411508 -29.83088546 18.19345375 -28.375 11.25 C-26.3702715 5.4716649 -22.31549482 1.69222575 -17.375 -1.75 C-11.67401262 -3.82931804 -5.24871516 -2.72155601 0 0 Z " fill="#229BA7" transform="translate(1358.375,886.75)"/>
<path d="M0 0 C6.11709472 2.07544285 8.65492668 5.68090807 11.8125 11.125 C13.74625837 16.06682696 13.2651259 20.93238895 12 26 C9.4538861 31.76826493 6.02715517 35.96203188 0.14453125 38.4140625 C-4.90222573 39.79295785 -9.24656547 39.58447818 -14.1875 37.9375 C-19.10113022 34.55255474 -23.58617116 29.93808112 -25 24 C-25.80228579 17.4939637 -24.88182727 12.35579646 -21 7 C-14.35327287 0.19043545 -9.45623175 -0.68074967 0 0 Z " fill="#191913" transform="translate(768,884)"/>
<path d="M0 0 C4.49160497 1.91766816 7.46868071 4.62874189 9.83984375 8.8984375 C11.9198179 15.01317632 11.4978316 21.6308535 9.68359375 27.75390625 C6.23627863 32.27850734 2.14949314 36.55693979 -3.31640625 38.37890625 C-9.67830455 39.16990604 -14.35193843 38.63538532 -19.625 34.875 C-23.93420321 31.06339531 -25.97946939 26.8843455 -26.51953125 21.265625 C-26.6621203 14.57582203 -25.43131573 9.82774881 -20.94140625 4.62890625 C-14.41011904 -0.96933993 -8.47753336 -2.27306544 0 0 Z " fill="#191913" transform="translate(1083.31640625,884.62109375)"/>
</svg>
