<?xml version="1.0" encoding="UTF-8"?>
<svg version="1.1" xmlns="http://www.w3.org/2000/svg" width="2000" height="2000">
<path d="M0 0 C2.39700892 3.70918586 2.26719146 7.3177389 2.22032166 11.58216858 C2.21991381 12.34961645 2.21950596 13.11706432 2.21908575 13.90776819 C2.21535269 16.48168208 2.19732368 19.0552988 2.17944336 21.62915039 C2.17396818 23.47393553 2.16941834 25.31872361 2.16572571 27.16351318 C2.15600834 31.13862871 2.14017433 35.11365693 2.11976433 39.08873177 C2.08795272 45.38038504 2.0724555 51.67201293 2.05970764 57.96372986 C2.02561423 73.59741343 1.97308896 89.2310289 1.9105835 104.86462402 C1.86206912 117.00323582 1.81999742 129.1417844 1.79907519 141.28047937 C1.78758278 147.52796477 1.76222306 153.77518973 1.72632778 160.02258027 C1.7070549 163.92142855 1.70044566 167.82022475 1.69726372 171.71911621 C1.6932644 173.51897047 1.68412833 175.3188223 1.66930008 177.11861992 C1.18262339 190.95386374 1.18262339 190.95386374 5 204 C6.90190822 205.26935889 6.90190822 205.26935889 9 206 C9.845625 206.350625 10.69125 206.70125 11.5625 207.0625 C16.36182212 208.37140603 21.03934063 208.63702492 26 209 C26 212.63 26 216.26 26 220 C18.91666934 220.47728066 11.832628 220.94086541 4.74755859 221.39160156 C2.33585272 221.54698577 -0.07561229 221.70615535 -2.48681641 221.86914062 C-5.94638113 222.10233775 -9.40657478 222.32204812 -12.8671875 222.5390625 C-13.95055389 222.61500641 -15.03392029 222.69095032 -16.15011597 222.76919556 C-17.1510025 222.82940887 -18.15188904 222.88962219 -19.18310547 222.95166016 C-20.06690887 223.00939606 -20.95071228 223.06713196 -21.86129761 223.12661743 C-24 223 -24 223 -26 221 C-26.1953125 217.9609375 -26.1953125 217.9609375 -26.125 214.375 C-26.10695313 213.18648437 -26.08890625 211.99796875 -26.0703125 210.7734375 C-26.04710937 209.85820313 -26.02390625 208.94296875 -26 208 C-26.65742187 208.63615234 -26.65742187 208.63615234 -27.328125 209.28515625 C-39.11760414 220.18802822 -52.91805599 226.7069658 -69.12573242 226.39819336 C-84.78699411 225.70711688 -99.19882779 219.17699495 -109.85546875 207.63671875 C-113.3581739 203.33011406 -116.27704589 198.83149806 -119 194 C-119.69222656 192.81664062 -119.69222656 192.81664062 -120.3984375 191.609375 C-130.29194493 173.50125838 -131.76522822 149.51794798 -127.1015625 129.62109375 C-121.4471253 111.03363531 -110.93670479 94.77595555 -94.0234375 84.56640625 C-88.55636632 81.73398307 -82.88375156 79.77687914 -77 78 C-76.18144531 77.74089844 -75.36289062 77.48179687 -74.51953125 77.21484375 C-59.48037188 73.30621541 -40.51354583 77.06310967 -27 84 C-26.92359949 76.90168189 -26.87125341 69.80347082 -26.83520508 62.70483398 C-26.82016855 60.2926843 -26.79973401 57.88056172 -26.77368164 55.46850586 C-26.73707268 51.99065436 -26.72022171 48.51316606 -26.70703125 45.03515625 C-26.69154739 43.96604507 -26.67606354 42.8969339 -26.66011047 41.79542542 C-26.65840408 34.11131945 -27.67126145 27.69386114 -31.8125 21.125 C-36.99173117 16.09374686 -43.01187206 15.2582473 -49.875 14.3125 C-50.75414062 14.18294922 -51.63328125 14.05339844 -52.5390625 13.91992188 C-54.69138003 13.60409267 -56.84552687 13.30077298 -59 13 C-59 9.7 -59 6.4 -59 3 C-50.66793635 2.31671771 -42.33485825 1.64833894 -34 1 C-32.78014404 0.90452881 -32.78014404 0.90452881 -31.53564453 0.80712891 C-21.0095833 0.0018961 -10.5483098 -0.10987823 0 0 Z M-74 92 C-74.93779297 92.49113281 -74.93779297 92.49113281 -75.89453125 92.9921875 C-86.76502066 99.71569563 -92.66839034 113.28701126 -95.76635742 125.17504883 C-101.40621518 149.18415272 -99.60271917 173.71834679 -87 195 C-82.47159626 202.09253885 -75.18119853 206.97492419 -67.125 209.375 C-58.44610963 211.072283 -49.04917937 210.87695721 -41 207 C-37.42465349 204.58153721 -34.17843715 201.9166835 -31 199 C-29.71110115 197.94439377 -29.71110115 197.94439377 -28.39616394 196.86746216 C-25.3747501 193.25177055 -25.28511258 190.49746329 -25.3371582 185.98779297 C-25.32679031 185.1951857 -25.31642242 184.40257843 -25.30574036 183.58595276 C-25.27868441 180.97083404 -25.28833373 178.35739549 -25.30078125 175.7421875 C-25.29486866 173.91480037 -25.28762039 172.08741711 -25.27909851 170.26004028 C-25.26721783 166.42836346 -25.27392064 162.59726737 -25.29321289 158.765625 C-25.31600853 153.87976002 -25.28942328 148.99564491 -25.24815083 144.10995293 C-25.22243207 140.33320514 -25.22519231 136.55686749 -25.23604393 132.78006363 C-25.23752122 130.98051497 -25.22995042 129.18093338 -25.21279335 127.38146591 C-25.12002174 115.75839074 -25.79981711 106.98351569 -33.88276672 97.87936401 C-40.3129075 91.40445176 -49.0613217 87.78699916 -58.125 87.4375 C-64.01239881 87.71455406 -68.80912757 89.26414751 -74 92 Z " fill="#FFFFFF" transform="translate(690,880)"/>
<path d="M0 0 C29.04 0 58.08 0 88 0 C88 3.63 88 7.26 88 11 C86.19015625 11.18175781 86.19015625 11.18175781 84.34375 11.3671875 C82.72913529 11.53615881 81.11455368 11.70544656 79.5 11.875 C78.70851563 11.95363281 77.91703125 12.03226563 77.1015625 12.11328125 C71.90933976 12.66655089 67.03846179 13.6248235 62 15 C62.28707243 22.38945695 65.87934272 28.15550389 69.3125 34.5625 C69.95262867 35.77370598 70.59202302 36.98530032 71.23071289 38.19726562 C73.13804467 41.80674122 75.06691082 45.40425117 77 49 C77.52625977 49.98081543 78.05251953 50.96163086 78.59472656 51.97216797 C85.33370371 64.49792396 92.26665337 76.91877079 99.18920898 89.34375 C99.80094971 90.44203125 100.41269043 91.5403125 101.04296875 92.671875 C101.58977295 93.6525293 102.13657715 94.63318359 102.69995117 95.64355469 C103.49319159 97.08136812 104.26562437 98.53124874 105 100 C109.71817273 93.05646098 114.17233289 85.9670245 118.5625 78.8125 C118.90838165 78.24918976 119.25426331 77.68587952 119.61062622 77.10549927 C128.42040769 62.7495754 137.203683 48.36451718 145.25 33.5625 C145.62116943 32.89468506 145.99233887 32.22687012 146.37475586 31.53881836 C148.5896855 27.3745803 149.79051977 23.72494292 150 19 C145.38278222 13.66134194 138.93558794 13.01962243 132.25 12.4375 C130.86554688 12.34275391 130.86554688 12.34275391 129.453125 12.24609375 C127 12 127 12 124 11 C124 7.37 124 3.74 124 0 C147.76 0 171.52 0 196 0 C196 3.63 196 7.26 196 11 C194.94941406 11.35191406 193.89882813 11.70382812 192.81640625 12.06640625 C177.5776869 17.34092842 169.80275905 24.6376792 161 38 C160.54834473 38.67949707 160.09668945 39.35899414 159.63134766 40.05908203 C148.2327013 57.25094157 137.98814669 75.09792474 127.73583984 92.98925781 C126.23347152 95.59505333 124.71161838 98.18729683 123.17578125 100.7734375 C122.38800972 102.11978516 121.60024827 103.46613872 120.8125 104.8125 C120.15894531 105.91207031 119.50539063 107.01164063 118.83203125 108.14453125 C113.94529902 117.62680845 112.3957383 127.32517905 112.50390625 137.87109375 C112.5017234 139.62003685 112.5017234 139.62003685 112.49949646 141.40431213 C112.50114255 143.84370449 112.512557 146.28310865 112.53344727 148.72241211 C112.56261932 152.45275741 112.55398459 156.18169684 112.54101562 159.91210938 C112.54724792 162.29427772 112.55563487 164.67644161 112.56640625 167.05859375 C112.56347061 168.16802841 112.56053497 169.27746307 112.55751038 170.42051697 C112.62512679 175.95762765 112.6865593 180.31762156 116 185 C121.08152582 189.19507528 128.19939282 190.13274117 134.5 191.25 C135.87671875 191.50910156 135.87671875 191.50910156 137.28125 191.7734375 C139.51885416 192.19298828 141.75917271 192.59801953 144 193 C144 196.63 144 200.26 144 204 C112.32 204 80.64 204 48 204 C48 200.37 48 196.74 48 193 C49.2065625 192.89042969 50.413125 192.78085938 51.65625 192.66796875 C53.27088975 192.50838226 54.88547008 192.34819381 56.5 192.1875 C57.68722656 192.08211914 57.68722656 192.08211914 58.8984375 191.97460938 C65.301368 191.31857141 71.33416001 190.18735589 76.4375 186 C78.80430445 182.97049031 79.13164627 180.36426675 79.22119141 176.64306641 C79.24436432 175.7642984 79.26753723 174.8855304 79.29141235 173.98013306 C79.3112619 173.03020477 79.33111145 172.08027649 79.3515625 171.1015625 C79.37471527 170.11562103 79.39786804 169.12967957 79.42172241 168.11386108 C79.46938664 166.02078415 79.51461767 163.92765062 79.55761719 161.83447266 C79.62401419 158.67195442 79.7021079 155.50987791 79.78125 152.34765625 C80.74045614 131.57411354 80.74045614 131.57411354 74.6875 112.0625 C74.2445459 111.17481934 73.8015918 110.28713867 73.34521484 109.37255859 C69.12462753 101.00625351 64.60498331 92.79451402 60.06640625 84.59765625 C56.96212718 78.97133515 54.00759507 73.27328856 51.0625 67.5625 C36.5052124 34.93606602 36.5052124 34.93606602 10.03125 13.58984375 C6.70693636 12.62451421 3.372313 11.78285838 0 11 C0 7.37 0 3.74 0 0 Z " fill="#FFFFFF" transform="translate(195,898)"/>
<path d="M0 0 C7.91204536 3.09910643 14.95868464 0.32963628 22.71679688 -1.94726562 C23.52955078 -2.17607422 24.34230469 -2.40488281 25.1796875 -2.640625 C25.91018311 -2.85533447 26.64067871 -3.07004395 27.39331055 -3.29125977 C29.74228885 -3.68005428 31.21221156 -3.26954553 33.48046875 -2.63671875 C32.94332514 3.17817389 32.07339258 8.75715361 30.6862793 14.42724609 C30.41772125 15.55386658 30.41772125 15.55386658 30.14373779 16.70324707 C29.55653593 19.16146125 28.96181506 21.61779133 28.3671875 24.07421875 C27.95166659 25.80932728 27.53670403 27.54456961 27.12226868 29.27993774 C26.0318781 33.84065291 24.93546188 38.39989558 23.83728027 42.95874023 C22.08960786 50.21653723 20.34957133 57.47615984 18.61249733 64.73649979 C18.01245092 67.23968673 17.40888335 69.74200352 16.80485535 72.24423218 C14.85502275 80.35122742 12.97863614 88.47149113 11.22583008 96.62353516 C11.05606753 97.39872183 10.88630499 98.1739085 10.71139812 98.97258568 C9.24244857 105.92287422 7.70165437 113.41600745 10.7109375 120.09375 C13.42261223 123.57163746 15.92951207 123.61043994 20.140625 124.2265625 C26.3541596 124.48091772 32.36929997 123.43541612 38.48046875 122.36328125 C37.73046875 129.98828125 37.73046875 129.98828125 35.48046875 133.36328125 C33.68383789 134.31469727 33.68383789 134.31469727 31.515625 135.1171875 C30.72067627 135.41359131 29.92572754 135.70999512 29.10668945 136.01538086 C28.26066162 136.31581299 27.41463379 136.61624512 26.54296875 136.92578125 C25.6821167 137.23588135 24.82126465 137.54598145 23.93432617 137.86547852 C17.85664987 140.0015584 11.92127641 141.76670558 5.48046875 142.36328125 C4.78050781 142.43289063 4.08054687 142.5025 3.359375 142.57421875 C-3.09811746 142.90149907 -8.73112047 140.94760556 -14.26953125 137.80078125 C-18.45883624 133.26236751 -21.23305401 127.4041309 -22.51953125 121.36328125 C-23.06738281 121.90855469 -23.61523438 122.45382812 -24.1796875 123.015625 C-36.06990475 134.32583165 -50.35769397 143.36344882 -67.14453125 143.80078125 C-78.36192874 143.44630692 -88.04662073 140.20812719 -96.4921875 132.58203125 C-109.05695211 119.10597602 -111.85719769 102.06724496 -111.6640625 84.28125 C-110.82206938 61.45640943 -101.85922327 38.45335306 -86.51953125 21.36328125 C-85.85953125 21.36328125 -85.19953125 21.36328125 -84.51953125 21.36328125 C-84.30039063 20.80253906 -84.08125 20.24179687 -83.85546875 19.6640625 C-76.18563338 6.45490159 -57.45439074 -0.81332193 -43.51953125 -4.63671875 C-29.15878234 -7.65094011 -13.32275824 -6.19560011 0 0 Z M-60.91796875 25.3125 C-74.39304726 44.00744681 -80.86951342 65.24689395 -80.89453125 88.23828125 C-80.91902344 89.41519531 -80.94351562 90.59210938 -80.96875 91.8046875 C-81.00788078 103.66131338 -78.86621708 113.76234267 -70.71484375 122.65625 C-64.32465413 127.6251341 -56.20085621 127.0267844 -48.51953125 126.36328125 C-40.3893342 124.53601079 -33.89683646 119.51958726 -27.51953125 114.36328125 C-26.87266357 113.95424561 -26.2257959 113.54520996 -25.55932617 113.1237793 C-17.83126047 107.64714775 -16.90534313 99.50751521 -15.08203125 90.80078125 C-14.71783921 89.16821113 -14.35067847 87.53630073 -13.98071289 85.9050293 C-13.20784309 82.48525639 -12.45000205 79.06259307 -11.70019531 75.63769531 C-10.53015927 70.34614777 -9.25096351 65.08468404 -7.94921875 59.82421875 C-7.52767539 58.10756169 -7.10636711 56.39084688 -6.68530273 54.67407227 C-6.07783839 52.19760217 -5.4685015 49.72172521 -4.8508606 47.24777222 C-0.55507952 31.1163662 -0.55507952 31.1163662 -4.26171875 15.3359375 C-7.35419056 10.4859429 -11.83569092 7.64742547 -17.1953125 5.87109375 C-34.91238668 2.00013637 -50.09906922 12.00913005 -60.91796875 25.3125 Z " fill="#229BA7" transform="translate(1745.51953125,962.63671875)"/>
<path d="M0 0 C0.10304504 1.34555586 0.13793046 2.69641994 0.14476013 4.04589844 C0.15165863 4.91775284 0.15855713 5.78960724 0.16566467 6.68788147 C0.16827805 7.65197433 0.17089142 8.6160672 0.17358398 9.609375 C0.180271 10.6191893 0.18695801 11.6290036 0.19384766 12.66941833 C0.20793812 14.87167128 0.2198193 17.07393917 0.22979546 19.2762146 C0.24616569 22.76533362 0.26940545 26.25434313 0.29469299 29.7434082 C0.36555345 39.66726233 0.42542644 49.5911631 0.47680664 59.51513672 C0.5086844 65.57880923 0.54999188 71.64235948 0.59700203 77.70593262 C0.6129808 80.01507352 0.62532133 82.32424264 0.63390923 84.63342285 C0.64612804 87.87423012 0.67030865 91.11475301 0.69702148 94.35546875 C0.69761063 95.30336777 0.69819977 96.25126678 0.69880676 97.22789001 C0.80813598 107.28985965 2.31878102 116.11431556 9.51953125 123.57421875 C14.87034055 128.30189583 19.80869969 128.35746103 26.70703125 128.2734375 C36.2729264 127.47911643 44.15580852 123.65616424 51 117 C51.49321936 116.52611312 51.98643871 116.05222624 52.49460411 115.56397915 C56.88250193 110.97749685 57.87098418 107.78699884 57.74462891 101.52954102 C57.75193024 100.71231567 57.75923157 99.89509033 57.76675415 99.05310059 C57.78287999 96.36917257 57.75582298 93.68769324 57.7265625 91.00390625 C57.72552411 89.12735496 57.72656409 87.25080147 57.72958374 85.37425232 C57.72940467 81.44765599 57.70862824 77.52188414 57.67236328 73.59545898 C57.62701968 68.57736622 57.62589846 63.56047849 57.63939857 58.54223728 C57.64610162 54.66869003 57.63277379 50.79541446 57.61314011 46.92191887 C57.60547378 45.07247276 57.60312397 43.22299632 57.6063118 41.37353706 C57.60705871 38.78173031 57.58166254 36.19143214 57.54931641 33.59985352 C57.55427124 32.84480026 57.55922607 32.08974701 57.56433105 31.31181335 C57.45585475 25.82978933 56.01842911 21.59868325 53 17 C49.05346877 13.59163212 44.7605605 13.33460177 39.75 12.875 C32.10812133 12.10812133 32.10812133 12.10812133 31 11 C30.85884839 8.32941149 30.95752893 5.67567762 31 3 C34.39072253 1.50417842 37.24879041 0.70842157 40.94213867 0.46582031 C41.89630173 0.39945374 42.85046478 0.33308716 43.83354187 0.26470947 C45.36033318 0.17235016 45.36033318 0.17235016 46.91796875 0.078125 C47.97156082 0.00962341 49.02515289 -0.05887817 50.110672 -0.12945557 C52.3318985 -0.27134173 54.55340372 -0.40892166 56.77514648 -0.54248047 C60.18643899 -0.74993548 63.59597855 -0.97765936 67.00585938 -1.20703125 C69.16398599 -1.34237138 71.32218728 -1.47652713 73.48046875 -1.609375 C74.50440231 -1.6790448 75.52833588 -1.7487146 76.58329773 -1.82049561 C78.00035759 -1.90113251 78.00035759 -1.90113251 79.44604492 -1.98339844 C80.27923752 -2.03510193 81.11243011 -2.08680542 81.97087097 -2.14007568 C84 -2 84 -2 86 0 C86.25053978 2.07218552 86.25053978 2.07218552 86.2515564 4.67987061 C86.25963066 6.16029343 86.25963066 6.16029343 86.26786804 7.67062378 C86.26374405 8.7573941 86.25962006 9.84416443 86.25537109 10.96386719 C86.26080177 12.67623062 86.26080177 12.67623062 86.26634216 14.42318726 C86.27325053 16.90917917 86.27573892 19.39518629 86.27439499 21.88118744 C86.2734331 25.81487861 86.28633271 29.74829399 86.30337524 33.6819458 C86.35042427 44.86866534 86.37433444 56.05537345 86.38085938 67.2421875 C86.38501524 74.07863377 86.41010434 80.91478693 86.44618607 87.75113678 C86.45599648 90.35861749 86.4583093 92.9661375 86.45301437 95.57363129 C86.4459545 99.22225038 86.46320663 102.87001622 86.48583984 106.51855469 C86.47766739 107.59722809 86.46949493 108.67590149 86.46107483 109.78726196 C86.52781023 115.83100765 86.9244898 119.42026508 91 124 C93.51364756 125.82619087 93.51364756 125.82619087 96 127 C96.66 127.33 97.32 127.66 98 128 C99.53668865 128.22467831 101.07968054 128.40796805 102.625 128.5625 C104.06875 128.706875 105.5125 128.85125 107 129 C107 132.63 107 136.26 107 140 C100.50474778 140.47780991 94.00869559 140.94135173 87.51147461 141.39160156 C85.30058258 141.54684304 83.08996224 141.70600507 80.87963867 141.86914062 C77.7055457 142.1027288 74.53074798 142.32227706 71.35546875 142.5390625 C70.36475876 142.61500641 69.37404877 142.69095032 68.35331726 142.76919556 C67.43258926 142.82940887 66.51186127 142.88962219 65.56323242 142.95166016 C64.7527092 143.00939606 63.94218597 143.06713196 63.10710144 143.12661743 C61 143 61 143 58 141 C57.61605333 138.22737745 57.39657752 135.65676472 57.3125 132.875 C57.27833984 132.12089844 57.24417969 131.36679688 57.20898438 130.58984375 C57.12645722 128.72708799 57.06155289 126.86356674 57 125 C56.01773438 125.96099609 56.01773438 125.96099609 55.015625 126.94140625 C41.86983898 139.40019498 28.19391051 146.39933621 9.828125 146.1484375 C-0.59010357 145.6016244 -9.94035338 142.57244359 -17.3125 134.9375 C-28.08357995 121.77284673 -28.28785355 105.23364591 -28.27439499 89.02379227 C-28.27341485 86.41629443 -28.28654018 83.80919226 -28.30337524 81.20175171 C-28.3492339 73.79908113 -28.37427667 66.39646063 -28.38085938 58.99365234 C-28.38588136 54.43974423 -28.41014612 49.88626357 -28.44618607 45.33250046 C-28.45594886 43.60783838 -28.45833532 41.88311733 -28.45301437 40.15843582 C-28.44592002 37.74920142 -28.46326676 35.34124275 -28.48583984 32.93212891 C-28.47766739 32.22966034 -28.46949493 31.52719177 -28.46107483 30.80343628 C-28.55075668 25.40122132 -30.05998424 22.37393013 -33 18 C-37.74390892 14.12970172 -44.12996968 13.10063068 -50 12 C-50 8.7 -50 5.4 -50 2 C-47.10320584 1.27580146 -44.76281074 0.81826286 -41.84570312 0.59521484 C-41.03806519 0.53200043 -40.23042725 0.46878601 -39.39831543 0.40365601 C-38.53468384 0.3400589 -37.67105225 0.27646179 -36.78125 0.2109375 C-35.88635864 0.14339264 -34.99146729 0.07584778 -34.06945801 0.0062561 C-32.18006798 -0.13503422 -30.29053665 -0.2744458 -28.40087891 -0.41210938 C-25.51014697 -0.62425533 -22.62035617 -0.84699184 -19.73046875 -1.0703125 C-17.89327709 -1.20637778 -16.05603883 -1.34181558 -14.21875 -1.4765625 C-13.35511841 -1.54420807 -12.49148682 -1.61185364 -11.60168457 -1.68154907 C-10.79404663 -1.73845917 -9.98640869 -1.79536926 -9.15429688 -1.85400391 C-8.09317688 -1.93275253 -8.09317688 -1.93275253 -7.01062012 -2.01309204 C-4.44398346 -1.99637953 -1.88125347 -1.88125347 0 0 Z " fill="#FFFFFF" transform="translate(437,960)"/>
<path d="M0 0 C13.33831772 11.52859622 21.53753042 27.65612057 23.5 45.125 C25.42069814 71.97694836 21.29134266 94.80146199 3.6875 115.8125 C-6.65059448 127.08499918 -21.41245845 134.01219674 -36.61865234 135.41210938 C-39.75135898 135.52460853 -42.86561743 135.53504279 -46 135.5 C-47.03769531 135.51160156 -48.07539062 135.52320313 -49.14453125 135.53515625 C-67.14633775 135.46790168 -81.78776406 128.21035811 -94.76953125 115.98828125 C-111.45707427 98.78902481 -115.04104207 77.09991808 -114.76953125 53.9921875 C-114.22242704 34.23714395 -106.58403141 16.12557048 -92.5 2.125 C-66.12532349 -20.4764753 -27.48882727 -20.78526356 0 0 Z M-71.5 9.125 C-86.41848462 29.50867205 -86.36746774 57.75822058 -82.91113281 81.76757812 C-80.50352485 95.57272209 -75.04136445 108.59900341 -64.5 118.125 C-56.47388527 123.64213287 -48.45676322 124.83527057 -38.9375 123.5625 C-29.78467974 121.61316875 -22.70806502 115.76849111 -17.5 108.125 C-3.97193869 83.55167451 -3.94192937 54.19716874 -10.37890625 27.4765625 C-13.56468006 17.10613564 -19.09983214 6.67894945 -28.58203125 0.84375 C-43.46267752 -6.88645585 -60.55608922 -3.49463247 -71.5 9.125 Z " fill="#FFFFFF" transform="translate(1243.5,970.875)"/>
<path d="M0 0 C35.31 0 70.62 0 107 0 C104.75766871 11.21165644 104.75766871 11.21165644 100.9375 14.9375 C97.6995825 18.25263334 94.64655795 21.56814108 91.75 25.1875 C87.58915231 30.32694428 83.28265511 35.32326152 78.94067383 40.30908203 C74.9535878 44.89043346 71.01214495 49.50710443 67.09863281 54.15136719 C63.71518052 58.16384184 60.29899816 62.14710388 56.875 66.125 C53.38176144 70.18620876 49.93551293 74.27518971 46.5625 78.4375 C42.46084729 83.48854068 38.21408989 88.40128396 33.94213867 93.30786133 C29.03423277 98.94762913 24.19855674 104.64521845 19.38232422 110.36328125 C17.9065427 112.11065661 16.42460381 113.85266609 14.94140625 115.59375 C14.43883301 116.18462402 13.93625977 116.77549805 13.41845703 117.38427734 C12.45577351 118.5158193 11.49196732 119.64640741 10.52685547 120.77587891 C8.53387317 123.1219165 6.71044603 125.43433096 5 128 C11.22557433 128.04974337 17.45103084 128.08588128 23.67675781 128.10986328 C25.79103615 128.11986979 27.90530083 128.13347918 30.01953125 128.15087891 C33.07295114 128.17536388 36.12618674 128.18653691 39.1796875 128.1953125 C40.57874832 128.21079636 40.57874832 128.21079636 42.006073 128.22659302 C49.27555434 128.22781293 56.08895641 127.3036812 63 125 C64.08769963 123.1587216 64.08769963 123.1587216 65 121 C65.82529835 119.66167835 66.65965155 118.32892314 67.5 117 C72.56983533 108.6511667 76.69681536 99.75944699 81 91 C84.3 91 87.6 91 91 91 C89.59504062 100.82922326 87.8145314 110.56335306 85.91333008 120.30664062 C85.43032014 122.78686818 84.95427435 125.26837247 84.47851562 127.75 C84.1722905 129.32820568 83.86566537 130.90633381 83.55859375 132.484375 C83.41691269 133.22588806 83.27523163 133.96740112 83.1292572 134.73138428 C82.1146167 139.8853833 82.1146167 139.8853833 81 141 C79.5325104 141.09565123 78.06043116 141.12188309 76.58982849 141.12025452 C75.63765442 141.12162918 74.68548035 141.12300385 73.70445251 141.12442017 C72.65141434 141.12082489 71.59837616 141.11722961 70.51342773 141.11352539 C69.41112823 141.11367142 68.30882874 141.11381744 67.17312622 141.1139679 C63.50992908 141.11326821 59.84678206 141.10547324 56.18359375 141.09765625 C53.65153532 141.09579227 51.11947652 141.09436827 48.5874176 141.09336853 C42.59151751 141.08993346 36.59563911 141.08204269 30.59974772 141.07201904 C23.77518942 141.06085677 16.95063028 141.05534717 10.12606514 141.05032361 C-3.91596664 141.03986004 -17.95798233 141.0222613 -32 141 C-31.71317931 139.2252478 -31.41643828 137.45209679 -31.11547852 135.6796875 C-30.95128922 134.69210449 -30.78709991 133.70452148 -30.61793518 132.68701172 C-29.82182792 129.2252416 -28.48697365 127.44605584 -25.9375 125 C-25.12796875 124.18015625 -24.3184375 123.3603125 -23.484375 122.515625 C-22.66453125 121.68546875 -21.8446875 120.8553125 -21 120 C-19.54089684 118.26797107 -18.10351252 116.51743169 -16.6875 114.75 C-13.23157641 110.48268565 -9.70613096 106.28696316 -6.125 102.125 C1.12589091 93.69483065 8.37081932 85.26221369 15.375 76.625 C19.54221124 71.50186933 23.86312457 66.52405072 28.20263672 61.54736328 C31.36452443 57.91280797 34.46842941 54.24488132 37.5 50.5 C41.57202427 45.47336198 45.79379473 40.59024563 50.04052734 35.71166992 C53.76210277 31.43431737 57.45944504 27.1379789 61.125 22.8125 C61.57407715 22.28414551 62.0231543 21.75579102 62.48583984 21.21142578 C64.74884766 18.53490866 66.91053104 15.81309295 69 13 C64.68076 12.94980771 60.36168355 12.91391437 56.04223633 12.89013672 C54.57899003 12.88020337 53.11576289 12.86665207 51.65258789 12.84912109 C32.19143196 11.95431148 32.19143196 11.95431148 15.34375 19.59765625 C9.23311848 26.80542388 5.24321116 35.6194174 1 44 C-2.3 44 -5.6 44 -9 44 C-7.88278983 38.0544527 -6.76169756 32.10965582 -5.63696289 26.16552734 C-5.25470249 24.14229275 -4.87351346 22.11885543 -4.4934082 20.09521484 C-3.94762604 17.19054366 -3.39802528 14.28661759 -2.84765625 11.3828125 C-2.6778273 10.47443634 -2.50799835 9.56606018 -2.33302307 8.63015747 C-2.17293259 7.78943695 -2.0128421 6.94871643 -1.84790039 6.08251953 C-1.70800186 5.34083527 -1.56810333 4.599151 -1.42396545 3.83499146 C-1 2 -1 2 0 0 Z " fill="#229BA7" transform="translate(1522,961)"/>
<path d="M0 0 C1.17113799 0.00138269 1.17113799 0.00138269 2.36593533 0.00279331 C3.70584782 0.00073132 3.70584782 0.00073132 5.07282925 -0.00137234 C6.06041225 0.00222294 7.04799526 0.00581821 8.06550503 0.00952244 C9.09952953 0.00937641 10.13355404 0.00923038 11.19891262 0.00907993 C14.63485175 0.00977956 18.07073742 0.01757425 21.50666714 0.02539158 C23.88178382 0.02725558 26.25690089 0.02867957 28.63201809 0.0296793 C34.89727233 0.03350586 41.16250356 0.04333732 47.42774868 0.05438328 C53.81537979 0.06459443 60.2030146 0.06917628 66.59065151 0.0742197 C79.13428115 0.08495947 91.6778948 0.10184656 104.22151089 0.12304783 C104.10624184 1.72807525 103.97811495 3.33218277 103.84455776 4.93579197 C103.77458584 5.8291576 103.70461391 6.72252323 103.63252163 7.64296055 C103.02723239 11.29534716 101.3491633 13.02616085 98.72151089 15.56054783 C95.26188596 19.05931985 91.98035076 22.52675021 88.90901089 26.37304783 C85.32755205 30.80573368 81.64919352 35.13717002 77.90901089 39.43554783 C77.3578561 40.06912205 76.80670132 40.70269627 76.23884487 41.3554697 C75.11972929 42.64153237 74.00050713 43.9275023 72.88117886 45.21337986 C66.76072629 52.25577174 60.66120752 59.31307584 54.78401089 66.56054783 C50.68235818 71.61158851 46.43560078 76.52433179 42.16364956 81.43090916 C37.24285015 87.08549313 32.39377368 92.79768111 27.56428432 98.53027439 C24.83651049 101.76591012 22.10032751 104.99444019 19.365798 108.22436619 C16.9595124 111.06721519 14.55562084 113.91204337 12.15510464 116.75976658 C11.65365932 117.35402439 11.15221401 117.9482822 10.63557339 118.56054783 C9.67259677 119.70185345 8.71032326 120.84375279 7.74885464 121.98632908 C5.96243354 124.1023874 4.18075186 126.16380685 2.22151089 128.12304783 C8.58947705 128.17408971 14.95738973 128.2089239 21.32551479 128.23291111 C23.48829527 128.2429195 25.65106238 128.25653033 27.81379604 128.27392673 C30.93671387 128.29840327 34.05945156 128.30958286 37.18244839 128.31836033 C38.13702938 128.3286829 39.09161037 128.33900547 40.07511806 128.34964085 C47.40215115 128.35084367 54.25498764 127.44522224 61.22151089 125.12304783 C62.30921052 123.28176943 62.30921052 123.28176943 63.22151089 121.12304783 C64.04680924 119.78472617 64.88116243 118.45197096 65.72151089 117.12304783 C70.79134622 108.77421453 74.91832625 99.88249482 79.22151089 91.12304783 C82.52151089 91.12304783 85.82151089 91.12304783 89.22151089 91.12304783 C84.49789525 118.03016207 84.49789525 118.03016207 81.97151089 130.74804783 C81.80876675 131.57530369 81.64602261 132.40255955 81.47834682 133.25488377 C80.34575484 138.87455993 80.34575484 138.87455993 79.22151089 141.12304783 C41.93151089 141.12304783 4.64151089 141.12304783 -33.77848911 141.12304783 C-31.4864507 128.51683654 -31.4864507 128.51683654 -25.84098911 122.74804783 C-24.65649904 121.46241472 -23.47292024 120.1759415 -22.29020786 118.88867283 C-21.40147984 117.94217869 -21.40147984 117.94217869 -20.49479771 116.97656345 C-17.95140057 114.22983927 -15.55168712 111.37133992 -13.15348911 108.49804783 C-12.25550823 107.43255866 -11.35707219 106.36745293 -10.45817661 105.30273533 C-9.79640415 104.51721287 -9.79640415 104.51721287 -9.12126255 103.71582127 C-6.84427473 101.01489971 -4.56103117 98.31927539 -2.27848911 95.62304783 C-1.36179327 94.53973918 -0.44512659 93.45640586 0.47151089 92.37304783 C38.97151089 46.87304783 38.97151089 46.87304783 40.34699917 45.24755955 C41.26215502 44.16595262 42.17719439 43.08424713 43.09211636 42.00244236 C45.40594566 39.26686844 47.7218756 36.53312308 50.04182339 33.80273533 C50.51168667 33.24908298 50.98154995 32.69543064 51.46565151 32.12500095 C52.75082289 30.61078913 54.03691136 29.09735579 55.32307339 27.58398533 C59.34688681 22.81155545 63.27615081 17.96030823 67.22151089 13.12304783 C62.81480382 13.04745776 58.40846529 12.99378695 54.00129604 12.95825291 C52.51001805 12.94340081 51.01878177 12.92311361 49.52766323 12.89672947 C31.13930859 12.31789643 31.13930859 12.31789643 14.28401089 18.31054783 C7.608505 25.26786927 3.44509851 35.56894631 -0.77848911 44.12304783 C-4.07848911 44.12304783 -7.37848911 44.12304783 -10.77848911 44.12304783 C-9.54995017 37.47945921 -8.31998027 30.83614162 -7.08708286 24.19336033 C-6.32124812 20.06455998 -5.56075608 15.93496331 -4.81364536 11.80273533 C-4.6780521 11.0595908 -4.54245884 10.31644627 -4.40275669 9.5507822 C-4.05159827 7.62479396 -3.70398121 5.69816098 -3.35661411 3.77148533 C-2.57218701 0.17796118 -2.57218701 0.17796118 0 0 Z " fill="#229BA7" transform="translate(1393.778489112854,960.8769521713257)"/>
<path d="M0 0 C0.4640625 -1.4540625 0.4640625 -1.4540625 0.9375 -2.9375 C2 -6 2 -6 3 -7 C4.85287502 -7.07226502 6.70833878 -7.0838122 8.5625 -7.0625 C9.57441406 -7.05347656 10.58632813 -7.04445313 11.62890625 -7.03515625 C12.41136719 -7.02355469 13.19382812 -7.01195312 14 -7 C14.29014373 -2.53865427 14.574695 1.92300602 14.85449219 6.38500977 C14.95003242 7.89682181 15.0469921 9.40854495 15.14550781 10.92016602 C15.75567597 20.29994487 16.10851186 29.59337783 16 39 C12.37 39 8.74 39 5 39 C4.72027344 38.09378906 4.44054687 37.18757812 4.15234375 36.25390625 C1.53456949 28.29957609 -1.26015236 22.26165197 -7 16 C-8.1446875 14.6078125 -8.1446875 14.6078125 -9.3125 13.1875 C-17.48444408 6.53591761 -27.81269137 5.1878 -38 6 C-44.49950757 7.46991588 -48.82951024 10.0862609 -52.94140625 15.31640625 C-56.14321263 20.40857803 -55.63743595 26.8971868 -54.46875 32.5859375 C-53.49337066 35.90347196 -53.49337066 35.90347196 -52 39 C-50.68358579 39.69948256 -49.34722207 40.36186607 -48 41 C-46.72240355 41.76259764 -45.44507831 42.52564976 -44.16796875 43.2890625 C-37.2933453 47.12468932 -29.7898996 49.47150162 -22.37915039 52.046875 C-5.84584023 57.82021208 11.02336107 63.95567827 20 80 C22.74980392 85.75411685 23.52006968 90.9082616 23.4375 97.25 C23.42847656 98.08265381 23.41945313 98.91530762 23.41015625 99.77319336 C23.08103232 111.56794362 19.5410385 120.69016796 11 129 C-2.81965226 140.6077767 -19.07410116 144.52434009 -37 143 C-47.94842003 141.46310167 -57.3983013 137.3409449 -67 132 C-67.99 134.64 -68.98 137.28 -70 140 C-73.63 140 -77.26 140 -81 140 C-81.9561952 134.28664863 -82.2094778 128.69688924 -82.31640625 122.91015625 C-82.33718735 121.96563095 -82.35796844 121.02110565 -82.37937927 120.04795837 C-82.44437354 117.05287427 -82.503525 114.05770807 -82.5625 111.0625 C-82.60573297 109.02277822 -82.64934873 106.98306452 -82.69335938 104.94335938 C-82.80000305 99.96232212 -82.9014094 94.9812029 -83 90 C-79.37 90 -75.74 90 -72 90 C-71.72027344 90.73863281 -71.44054687 91.47726562 -71.15234375 92.23828125 C-64.8973855 108.06674473 -56.09026702 120.85008074 -40.34765625 128.24609375 C-30.88499984 131.45143442 -20.10495439 131.20592184 -11 127 C-6.1727907 123.91240763 -2.96585218 120.46070049 -1 115 C0.47119435 108.09670342 0.03674938 101.91785887 -3.25878906 95.57861328 C-9.54549215 86.2684397 -22.8476335 83.26612668 -33 79.9375 C-50.18849048 74.26089275 -66.74514404 68.20176779 -75.8828125 51.3203125 C-80.35801804 42.02565485 -80.35832345 31.43267583 -77.375 21.625 C-75.37027931 16.32831692 -72.7711716 12.19826815 -69 8 C-68.21302734 7.07574219 -68.21302734 7.07574219 -67.41015625 6.1328125 C-51.29210806 -11.54015328 -19.84642112 -10.78878656 0 0 Z " fill="#FFFFFF" transform="translate(898,963)"/>
<path d="M0 0 C8.91 0 17.82 0 27 0 C27 14.52 27 29.04 27 44 C40.53 44 54.06 44 68 44 C68 48.62 68 53.24 68 58 C54.8 58 41.6 58 28 58 C28.06304026 70.0835298 28.13855455 82.16680796 28.23571491 94.25011253 C28.28034373 99.86155115 28.31961637 105.47291842 28.34643555 111.08447266 C28.37254318 116.50517043 28.41299832 121.92559251 28.46318626 127.34611893 C28.47980459 129.40880516 28.49135009 131.47153902 28.49761391 133.53428268 C28.50730988 136.43509216 28.53543443 139.33520428 28.56762695 142.23583984 C28.56619186 143.07885651 28.56475677 143.92187317 28.5632782 144.79043579 C28.67866891 152.19601726 30.23581491 159.53764473 34 166 C45.14620045 171.44113246 59.13091066 169.08783798 71 168 C71 171.63 71 175.26 71 179 C54.36709541 186.48480707 34.64319559 192.3906136 16.5625 186.25 C10.31068545 183.65451851 6.67057723 180.15728353 3.75 174.0625 C3.24984375 173.04285156 2.7496875 172.02320313 2.234375 170.97265625 C0.49234412 166.77744896 -0.12567354 162.93740548 -0.12025452 158.41252136 C-0.12162918 157.52216187 -0.12300385 156.63180237 -0.12442017 155.71446228 C-0.12082489 154.75061111 -0.11722961 153.78675995 -0.11352539 152.79370117 C-0.11367142 151.76884613 -0.11381744 150.74399109 -0.1139679 149.68807983 C-0.11327218 146.30635448 -0.1054957 142.92468446 -0.09765625 139.54296875 C-0.09579086 137.19598928 -0.09436753 134.84900942 -0.09336853 132.50202942 C-0.08955289 126.32889732 -0.07973071 120.1557888 -0.06866455 113.98266602 C-0.05842996 107.68180663 -0.05386652 101.38094343 -0.04882812 95.08007812 C-0.03810761 82.72004006 -0.02051849 70.36002568 0 58 C-8.58 58 -17.16 58 -26 58 C-26 53.38 -26 48.76 -26 44 C-17.42 44 -8.84 44 0 44 C0 29.48 0 14.96 0 0 Z " fill="#FFFFFF" transform="translate(959,917)"/>
<path d="M0 0 C0.1015183 1.55745218 0.13352257 3.11948606 0.13803101 4.68023682 C0.14348434 5.69249832 0.14893768 6.70475983 0.15455627 7.74769592 C0.1555986 8.86768478 0.15664093 9.98767365 0.15771484 11.14160156 C0.16279556 12.31389816 0.16787628 13.48619476 0.17311096 14.6940155 C0.18665396 17.91939495 0.19602039 21.14476076 0.20452833 24.37015629 C0.21522776 27.74311619 0.23381418 31.11602814 0.25234985 34.48895264 C0.3143268 45.9862481 0.36826135 57.48353958 0.40136719 68.98095703 C0.41971906 75.3264658 0.44866457 81.67183449 0.4893719 88.01724029 C0.51043778 91.37593196 0.52589848 94.7344471 0.52817917 98.09320831 C0.53307507 101.8426217 0.5562011 105.59151265 0.58349609 109.34082031 C0.58048996 110.45271225 0.57748383 111.56460419 0.5743866 112.71018982 C0.58547958 113.73373062 0.59657257 114.75727142 0.60800171 115.81182861 C0.61131186 116.69821644 0.614622 117.58460426 0.61803246 118.49785233 C1.09096963 121.59591309 2.16922787 123.47385111 4 126 C6.73948765 127.63355602 6.73948765 127.63355602 9.875 128.75 C10.90367188 129.15734375 11.93234375 129.5646875 12.9921875 129.984375 C15.66577674 130.88714539 18.22226441 131.52850245 21 132 C21 135.3 21 138.6 21 142 C-2.1 142 -25.2 142 -49 142 C-49 138.7 -49 135.4 -49 132 C-48.19175781 131.86722656 -47.38351562 131.73445313 -46.55078125 131.59765625 C-44.94783203 131.33275391 -44.94783203 131.33275391 -43.3125 131.0625 C-42.25675781 130.88847656 -41.20101563 130.71445313 -40.11328125 130.53515625 C-38.57220703 130.27025391 -38.57220703 130.27025391 -37 130 C-36.07058594 129.85175781 -35.14117188 129.70351562 -34.18359375 129.55078125 C-31.84402418 129.22043695 -31.84402418 129.22043695 -30.75 127.125 C-29.04487141 122.29380232 -28.83190059 118.05804634 -28.80712891 112.97387695 C-28.79895142 112.04994644 -28.79077393 111.12601593 -28.78234863 110.17408752 C-28.75750881 107.11215867 -28.740981 104.05027619 -28.7265625 100.98828125 C-28.72123882 99.94189169 -28.71591515 98.89550213 -28.71043015 97.81740379 C-28.68370302 92.27744657 -28.66432784 86.73751183 -28.64990234 81.19750977 C-28.63656843 76.61625173 -28.60872484 72.03543966 -28.56787109 67.4543457 C-28.51851724 61.92005762 -28.4937776 56.3861738 -28.48667526 50.85167503 C-28.47996837 48.74538957 -28.46476104 46.63911293 -28.44078445 44.53295326 C-28.40908085 41.57919203 -28.40910432 38.6269832 -28.41650391 35.6730957 C-28.40009857 34.80890015 -28.38369324 33.94470459 -28.36679077 33.05432129 C-28.42975152 26.89015113 -30.08991957 22.78518686 -34 18 C-37.75855302 14.97695155 -41.62580006 14.23231961 -46.3125 13.3125 C-47.56675781 13.06113281 -48.82101562 12.80976562 -50.11328125 12.55078125 C-51.06589844 12.36902344 -52.01851562 12.18726563 -53 12 C-53 8.37 -53 4.74 -53 1 C-46.39857421 0.54600213 -39.79664205 0.10067128 -33.1940918 -0.33666992 C-30.94848905 -0.48663617 -28.70304254 -0.63896141 -26.45776367 -0.79370117 C-23.22873588 -1.01582629 -19.99923962 -1.22943658 -16.76953125 -1.44140625 C-15.76727005 -1.51218887 -14.76500885 -1.5829715 -13.7323761 -1.65589905 C-12.79177841 -1.71603683 -11.85118073 -1.77617462 -10.88208008 -1.83813477 C-10.05823318 -1.89365005 -9.23438629 -1.94916534 -8.38557434 -2.00636292 C-1.98930248 -1.98930248 -1.98930248 -1.98930248 0 0 Z " fill="#FFFFFF" transform="translate(1092,960)"/>
<path d="M0 0 C0.1015183 1.55745218 0.13352257 3.11948606 0.13803101 4.68023682 C0.14348434 5.69249832 0.14893768 6.70475983 0.15455627 7.74769592 C0.1555986 8.86768478 0.15664093 9.98767365 0.15771484 11.14160156 C0.16279556 12.31389816 0.16787628 13.48619476 0.17311096 14.6940155 C0.18665396 17.91939495 0.19602039 21.14476076 0.20452833 24.37015629 C0.21522776 27.74311619 0.23381418 31.11602814 0.25234985 34.48895264 C0.3143268 45.9862481 0.36826135 57.48353958 0.40136719 68.98095703 C0.41971906 75.3264658 0.44866457 81.67183449 0.4893719 88.01724029 C0.51043778 91.37593196 0.52589848 94.7344471 0.52817917 98.09320831 C0.53307507 101.8426217 0.5562011 105.59151265 0.58349609 109.34082031 C0.58048996 110.45271225 0.57748383 111.56460419 0.5743866 112.71018982 C0.58547958 113.73373062 0.59657257 114.75727142 0.60800171 115.81182861 C0.61131186 116.69821644 0.614622 117.58460426 0.61803246 118.49785233 C1.08811728 121.5772282 2.20888485 123.47277393 4 126 C9.06058018 129.30385018 15.15746154 130.72526434 21 132 C21 135.3 21 138.6 21 142 C12.02079223 142.02312566 3.04159463 142.04091623 -5.93763638 142.05181217 C-10.10662828 142.05704051 -14.27559987 142.06413726 -18.44458008 142.07543945 C-22.46457686 142.08627008 -26.48455405 142.09227721 -30.50456429 142.09487724 C-32.04162975 142.09673118 -33.57869409 142.10035119 -35.11575127 142.10573006 C-37.26135487 142.11294284 -39.40687655 142.11399084 -41.55249023 142.11352539 C-42.77604721 142.115746 -43.99960419 142.11796661 -45.26023865 142.12025452 C-48 142 -48 142 -49 141 C-49.14115161 138.32941149 -49.04247107 135.67567762 -49 133 C-45.67015049 131.44607023 -42.53505311 130.72016388 -38.9375 130.125 C-34.82152954 129.34713058 -32.48908933 128.57130208 -30 125 C-28.6630565 120.98916951 -28.84419581 117.12482282 -28.83886719 112.94213867 C-28.83390228 112.01499557 -28.82893738 111.08785248 -28.82382202 110.13261414 C-28.8092001 107.06105816 -28.80239823 103.98955383 -28.796875 100.91796875 C-28.79112344 98.78428648 -28.78536571 96.65060423 -28.77960205 94.516922 C-28.76909189 90.04049437 -28.76324936 85.56408471 -28.75976562 81.08764648 C-28.75428178 75.35428993 -28.73025603 69.62117096 -28.70179367 63.88788891 C-28.68316108 59.47922576 -28.67796135 55.07061975 -28.67642975 50.66192055 C-28.67340396 48.54843154 -28.66537792 46.43494352 -28.65224457 44.32149315 C-28.63517182 41.36282707 -28.63706748 38.4047404 -28.64355469 35.44604492 C-28.6343399 34.57465881 -28.62512512 33.70327271 -28.6156311 32.80548096 C-28.65760114 26.68859473 -29.73096457 22.40655273 -34.0625 17.8125 C-39.7637078 14.29473348 -46.4001976 12.86839505 -53 12 C-53 8.37 -53 4.74 -53 1 C-46.39857421 0.54600213 -39.79664205 0.10067128 -33.1940918 -0.33666992 C-30.94848905 -0.48663617 -28.70304254 -0.63896141 -26.45776367 -0.79370117 C-23.22873588 -1.01582629 -19.99923962 -1.22943658 -16.76953125 -1.44140625 C-15.76727005 -1.51218887 -14.76500885 -1.5829715 -13.7323761 -1.65589905 C-12.79177841 -1.71603683 -11.85118073 -1.77617462 -10.88208008 -1.83813477 C-10.05823318 -1.89365005 -9.23438629 -1.94916534 -8.38557434 -2.00636292 C-1.98930248 -1.98930248 -1.98930248 -1.98930248 0 0 Z " fill="#FFFFFF" transform="translate(778,960)"/>
<path d="M0 0 C4.64512356 3.74942708 7.03643128 7.99771432 7.83311462 13.9092865 C8.49118963 26.09682118 4.89894335 38.50584713 1.90234375 50.21484375 C1.50304396 51.80684546 1.10475475 53.39910094 0.70741272 54.99159241 C-0.32826644 59.13442036 -1.37401789 63.274625 -2.42315674 67.4140625 C-4.10700285 74.06007049 -5.7802791 80.70869243 -7.44372368 87.35983467 C-8.02175963 89.66150011 -8.60733626 91.9611505 -9.19361877 94.26072693 C-13.03637989 108.59166052 -13.03637989 108.59166052 -11 123 C-8.99748546 125.82172503 -7.31603225 126.3402964 -4 127 C3.04273417 127.38251272 10.01069789 126.84902585 17 126 C17.10798586 129.1585865 16.93670423 131.9688672 16 135 C13.12274792 137.0716215 11.29394958 137.908318 8 139 C6.78183594 139.43183594 5.56367187 139.86367187 4.30859375 140.30859375 C-8.04685584 144.607987 -21.31957565 148.19607713 -33.87109375 142.40625 C-38.73693964 139.19211327 -41.83173278 134.68052456 -43 129 C-43.71664433 120.52401155 -42.15347218 112.7704747 -40.1875 104.5625 C-39.88190137 103.24852734 -39.57699217 101.93439419 -39.27270508 100.62011719 C-35.94836132 86.38260607 -32.34590952 72.20783224 -28.7331543 58.04125977 C-22.73442457 38.34353446 -22.73442457 38.34353446 -24.25 18.4375 C-26.26199821 15.63507393 -26.74272412 15.53897371 -30 15 C-37.49162115 14.41641357 -44.66029091 15.58754739 -52 17 C-51.73249395 13.4956707 -51.22653615 10.30381864 -50 7 C-47.07914669 4.88094956 -45.34450544 4.07918635 -42 3 C-40.783125 2.56945312 -39.56625 2.13890625 -38.3125 1.6953125 C-26.77746729 -2.32505013 -11.226768 -7.31045358 0 0 Z " fill="#229BA7" transform="translate(1339,960)"/>
<path d="M0 0 C4.49805117 3.85547243 7.42618761 7.364921 8.625 13.25 C8.92107322 20.30092892 7.69448651 25.69071792 3.421875 31.3671875 C-0.66635971 35.65094647 -5.06061505 37.42017482 -10.9375 37.75 C-16.2940732 37.47341274 -20.02628634 35.52395354 -23.84765625 31.82421875 C-28.27949907 26.82385965 -29.92599365 22.31141847 -29.75 15.72265625 C-28.80627328 9.49995818 -25.873501 3.97234342 -20.8125 0.1875 C-13.98970838 -3.65807346 -7.00002668 -3.62964346 0 0 Z " fill="#FFFFFF" transform="translate(772.375,886.75)"/>
<path d="M0 0 C3.99188494 2.39048924 6.2795658 5.98458218 8.015625 10.20703125 C8.67205795 16.80546116 9.1833381 23.73690781 5.015625 29.20703125 C0.29880845 33.9140211 -3.34249797 37.29060526 -10.234375 37.51953125 C-16.03209049 37.42556503 -19.60195291 35.5249182 -23.71484375 31.5234375 C-28.55431325 26.17818021 -29.35651098 21.95623474 -29.26171875 14.8046875 C-28.66907263 9.2538471 -26.19562613 5.00908974 -22.046875 1.33203125 C-14.51823749 -3.89192131 -8.18305957 -3.93844534 0 0 Z " fill="#FFFFFF" transform="translate(1085.984375,886.79296875)"/>
<path d="M0 0 C4.4997193 3.85690226 7.40402432 7.36711716 8.625 13.25 C8.72590774 19.92112268 7.44973384 25.72396314 3.625 31.25 C-0.65789403 35.42307623 -4.75400203 37.31093152 -10.6875 37.6875 C-17.11051984 37.53762954 -21.28583652 34.28418549 -25.75 29.9375 C-29.47065135 23.78411508 -29.83088546 18.19345375 -28.375 11.25 C-26.3702715 5.4716649 -22.31549482 1.69222575 -17.375 -1.75 C-11.67401262 -3.82931804 -5.24871516 -2.72155601 0 0 Z " fill="#229BA7" transform="translate(1358.375,886.75)"/>
</svg>
